<svg width="40" height="40" viewBox="0 0 40 40" fill="none" xmlns="http://www.w3.org/2000/svg">
<path fill-rule="evenodd" clip-rule="evenodd" d="M38.3333 6.66675C38.3333 3.90533 36.0948 1.66675 33.3333 1.66675H6.66663C3.90521 1.66675 1.66663 3.90533 1.66663 6.66675V33.3334C1.66663 36.0949 3.90521 38.3334 6.66663 38.3334H33.3333C36.0948 38.3334 38.3333 36.0949 38.3333 33.3334V6.66675ZM35 6.66675C35 5.74628 34.2538 5.00008 33.3333 5.00008H6.66663C5.74616 5.00008 4.99996 5.74628 4.99996 6.66675V33.3334C4.99996 34.2539 5.74616 35.0001 6.66663 35.0001H33.3333C34.2538 35.0001 35 34.2539 35 33.3334V6.66675Z" fill="white"/>
<path d="M8.01104 29.2018L15.2035 16.0158C15.8352 14.8577 17.4981 14.8577 18.1298 16.0158L23.4108 25.6977L25.2196 22.5323C25.8595 21.4127 27.4738 21.4127 28.1136 22.5323L31.9085 29.1732C32.5433 30.2842 31.741 31.6667 30.4613 31.6667H9.47419C8.20909 31.6667 7.40524 30.3125 8.01104 29.2018Z" fill="white"/>
<path d="M30 13.3333C30 15.1743 28.5077 16.6667 26.6667 16.6667C24.8257 16.6667 23.3334 15.1743 23.3334 13.3333C23.3334 11.4924 24.8257 10 26.6667 10C28.5077 10 30 11.4924 30 13.3333Z" fill="white"/>
</svg>
