<svg width="44" height="44" viewBox="0 0 44 44" fill="none" xmlns="http://www.w3.org/2000/svg">
	<path d="M9 29.7229L16.962 16.3074L22.7639 25.7384L28.4075 34.9133" stroke="white" stroke-width="2" stroke-linecap="round" stroke-linejoin="round"/>
	<path d="M22.6045 26.5215L26.0653 20.0132L34.754 31.3" stroke="white" stroke-width="2" stroke-linecap="round" stroke-linejoin="round"/>
	<path d="M14.1121 13.384C15.2926 13.384 16.2495 12.4026 16.2495 11.192C16.2495 9.9814 15.2926 9 14.1121 9C12.9317 9 11.9747 9.9814 11.9747 11.192C11.9747 12.4026 12.9317 13.384 14.1121 13.384Z" stroke="white" stroke-width="2" stroke-linecap="round" stroke-linejoin="round"/>
	<path d="M22 42C33.0457 42 42 33.0457 42 22C42 10.9543 33.0457 2 22 2C10.9543 2 2 10.9543 2 22C2 33.0457 10.9543 42 22 42Z" stroke="white" stroke-width="3" stroke-linecap="round" stroke-linejoin="round"/>
</svg>
