<svg width="40" height="40" viewBox="0 0 40 40" fill="none" xmlns="http://www.w3.org/2000/svg">
<path d="M20 0C8.97164 0 0 8.97164 0 20C0 31.0284 8.97164 40 20 40C31.0284 40 40 31.0284 40 20C40 8.97164 31.0284 0 20 0ZM30 21.6666H14.0234L17.845 25.4883C18.4966 26.1399 18.4966 27.1933 17.845 27.8449C17.52 28.1699 17.0934 28.3333 16.6666 28.3333C16.24 28.3333 15.8133 28.1699 15.4883 27.8449L8.82164 21.1783C8.66828 21.0249 8.54664 20.8416 8.46164 20.6366C8.29328 20.23 8.29328 19.77 8.46164 19.3633C8.54664 19.1583 8.66828 18.9749 8.82164 18.8216L15.4883 12.155C16.1399 11.5034 17.1933 11.5034 17.8449 12.155C18.4966 12.8066 18.4966 13.86 17.8449 14.5116L14.0233 18.3333H30C30.92 18.3333 31.6666 19.0799 31.6666 19.9999C31.6666 20.9199 30.92 21.6666 30 21.6666Z" fill="white"/>
</svg>
