<svg width="41" height="40" viewBox="0 0 41 40" fill="none" xmlns="http://www.w3.org/2000/svg">
<path d="M31.9889 17.2073L31.9221 16.8681L31.8108 16.6743L31.6772 16.4482C31.5837 16.3065 31.4714 16.1938 31.347 16.1167C31.2227 16.0397 31.0889 16 30.9537 16C30.8185 16 30.6847 16.0397 30.5603 16.1167C30.436 16.1938 30.3237 16.3065 30.2302 16.4482L30.0966 16.6743L30.0076 16.9327C30.0028 17.0295 30.0028 17.1266 30.0076 17.2234C29.9975 17.3198 29.9975 17.4178 30.0076 17.5141C30.004 17.7071 30.0267 17.8992 30.0743 18.0794C30.1263 18.2602 30.2019 18.4248 30.297 18.5639C30.3901 18.7066 30.5043 18.817 30.6309 18.8869C30.7585 18.9602 30.8944 18.9985 31.0316 19H31.232L31.4323 18.9031L31.6104 18.7739C31.6511 18.6849 31.6812 18.5866 31.6995 18.4832C31.7978 18.348 31.8739 18.1824 31.9221 17.9987C31.9735 17.8195 32 17.6274 32 17.4334C31.9993 17.3578 31.9956 17.2823 31.9889 17.2073Z" fill="#EFDCAC"/>
<path d="M34.971 12.288L34.9041 11.9973L34.8148 11.7389L34.681 11.4482C34.5872 11.3065 34.4747 11.1938 34.3501 11.1167C34.2254 11.0397 34.0913 11 33.9558 11C33.8203 11 33.6862 11.0397 33.5616 11.1167C33.437 11.1938 33.3244 11.3065 33.2307 11.4482L33.0968 11.6743L33.0076 11.9327C33.0028 12.0295 33.0028 12.1266 33.0076 12.2234C32.9975 12.3198 32.9975 12.4178 33.0076 12.5141C33.004 12.7071 33.0268 12.8992 33.0745 13.0794C33.1266 13.2602 33.2024 13.4248 33.2976 13.5639C33.391 13.7066 33.5054 13.817 33.6323 13.8869C33.7602 13.9602 33.8964 13.9985 34.0339 14H34.2347L34.4355 13.9031L34.614 13.7739C34.6728 13.7215 34.7255 13.6561 34.7702 13.5801C34.8688 13.4449 34.945 13.2793 34.9933 13.0956C35.0071 12.9227 34.9995 12.7477 34.971 12.5787C34.976 12.482 34.976 12.3848 34.971 12.288Z" fill="#EFDCAC"/>
<path d="M27.9776 5.22342L27.9105 4.93271L27.8209 4.6743L27.6866 4.44819C27.5926 4.30651 27.4796 4.19376 27.3546 4.11673C27.2295 4.03971 27.095 4 26.959 4C26.8231 4 26.6885 4.03971 26.5635 4.11673C26.4384 4.19376 26.3255 4.30651 26.2315 4.44819L26.0971 4.6743L26.0076 4.93271C26.0028 5.02949 26.0028 5.12664 26.0076 5.22342C25.9975 5.31978 25.9975 5.41778 26.0076 5.51414C26.004 5.7071 26.0269 5.89918 26.0748 6.07941C26.127 6.26025 26.203 6.42478 26.2986 6.56393C26.3923 6.70664 26.5071 6.81704 26.6344 6.88694C26.7628 6.96015 26.8994 6.99848 27.0374 7H27.2389L27.4403 6.9031L27.5411 6.75774C27.6 6.70539 27.6529 6.63999 27.6978 6.56393C27.7967 6.42874 27.8732 6.26313 27.9216 6.07941C27.9734 5.9003 28 5.70818 28 5.51414C27.9975 5.41657 27.9901 5.31939 27.9776 5.22342Z" fill="#EFDCAC"/>
<path d="M22.8707 10.8112L22.7738 10.6185L22.6445 10.4471L22.4507 10.2972C22.3149 10.2032 22.1519 10.1285 21.9714 10.0774C21.7909 10.0263 21.5967 10 21.4005 10C21.2042 10 21.01 10.0263 20.8295 10.0774C20.649 10.1285 20.486 10.2032 20.3503 10.2972L20.1402 10.4578L20.011 10.6292C20.004 10.6934 20.004 10.7578 20.011 10.822C19.9963 10.8858 19.9963 10.9508 20.011 11.0147C20.0058 11.1427 20.0388 11.27 20.1079 11.3896C20.1833 11.5095 20.2931 11.6186 20.431 11.7108C20.5663 11.8055 20.732 11.8787 20.9158 11.925C21.101 11.9736 21.2982 11.999 21.4974 12H21.7882L22.0791 11.9357L22.3376 11.8501C22.4227 11.8154 22.499 11.772 22.5638 11.7216C22.7065 11.6319 22.817 11.5221 22.8869 11.4003C22.9616 11.2815 23 11.1541 23 11.0254C22.9665 10.9517 22.9233 10.88 22.8707 10.8112Z" fill="#EFDCAC"/>
<path d="M14.8707 5.20727L14.7738 4.91656L14.6284 4.6743L14.4345 4.44819C14.2988 4.30651 14.1357 4.19376 13.9553 4.11673C13.7748 4.03971 13.5806 4 13.3843 4C13.1881 4 12.9938 4.03971 12.8134 4.11673C12.6329 4.19376 12.4698 4.30651 12.3341 4.44819L12.1402 4.6743L12.011 4.93271C12.004 5.02949 12.004 5.12664 12.011 5.22342C11.9963 5.31978 11.9963 5.41778 12.011 5.51414C12.0058 5.7071 12.0388 5.89918 12.1079 6.07941C12.1833 6.26025 12.2931 6.42478 12.431 6.56393C12.5663 6.70664 12.732 6.81704 12.9158 6.88694C13.101 6.96015 13.2982 6.99848 13.4974 7H13.7882L14.0791 6.9031L14.3376 6.77389C14.4227 6.72154 14.499 6.65614 14.5638 6.58008C14.7065 6.44489 14.817 6.27928 14.8869 6.09556C14.9616 5.91645 15 5.72433 15 5.53029C14.9665 5.41902 14.9233 5.31092 14.8707 5.20727Z" fill="#EFDCAC"/>
<path d="M22.9657 32.1824C23.0173 31.9566 23.0106 31.7214 22.9461 31.499C22.8815 31.2766 22.7613 31.0744 22.5969 30.9116L9.1306 17.4055C8.96719 17.2393 8.76382 17.118 8.54008 17.0533C8.31633 16.9886 8.07974 16.9827 7.85305 17.0361C7.62637 17.0896 7.41722 17.2006 7.24574 17.3584C7.07426 17.5163 6.94622 17.7157 6.87393 17.9375L0.0743952 38.1966C-0.00872192 38.4376 -0.0225056 38.6972 0.0346183 38.9456C0.0917422 39.1941 0.217471 39.4215 0.397443 39.6018C0.577416 39.7821 0.804377 39.9081 1.0524 39.9653C1.30043 40.0225 1.55952 40.0087 1.80009 39.9255L22.0069 33.1724C22.2404 33.1081 22.4524 32.9824 22.6209 32.8083C22.7895 32.6342 22.9085 32.4181 22.9657 32.1824ZM12.0068 33.6601L6.40194 28.0301L7.13942 25.8135L14.2339 32.9212L12.0068 33.6601ZM5.42847 30.9263L9.11585 34.6206L3.58478 36.4677L5.42847 30.9263ZM17.1101 31.9607L8.09814 22.9173L8.76187 20.9076L19.0865 31.2514L17.1101 31.9607Z" fill="#EFDCAC"/>
<path d="M25.2916 18.1229L25.914 14.5275L29.5471 13.9115C29.818 13.8652 30.0677 13.7371 30.2621 13.5448C30.4564 13.3524 30.5859 13.1053 30.6327 12.8372L31.2551 9.24177L34.8882 8.62582C35.0612 8.59666 35.2267 8.53407 35.3752 8.44163C35.5237 8.34918 35.6524 8.22869 35.7539 8.08703C35.8554 7.94537 35.9276 7.78531 35.9666 7.61601C36.0056 7.4467 36.0105 7.27145 35.981 7.10027C35.9516 6.92909 35.8883 6.76532 35.7949 6.61833C35.7015 6.47134 35.5797 6.34399 35.4366 6.24357C35.2934 6.14314 35.1317 6.0716 34.9606 6.03303C34.7895 5.99446 34.6125 5.98962 34.4395 6.01877L29.88 6.79229C29.6091 6.83859 29.3594 6.9667 29.165 7.15905C28.9707 7.35141 28.8412 7.59857 28.7944 7.86662L28.172 11.4621L24.5389 12.078C24.268 12.1243 24.0183 12.2524 23.8239 12.4448C23.6296 12.6371 23.5001 12.8843 23.4533 13.1523L22.8309 16.7478L19.1399 17.378C18.8035 17.4265 18.4985 17.6004 18.2875 17.8643C18.0765 18.1281 17.9755 18.4618 18.0051 18.7969C18.0347 19.1321 18.1927 19.4434 18.4468 19.667C18.7008 19.8905 19.0317 20.0095 19.3715 19.9994H19.6031L24.1626 19.2259C24.4454 19.1862 24.7079 19.0576 24.9112 18.8589C25.1145 18.6603 25.2478 18.4023 25.2916 18.1229Z" fill="#EFDCAC"/>
<path d="M40.1307 19.6451L36.3341 18.0935C36.0398 17.9716 35.715 17.9688 35.4189 18.0856C35.1229 18.2024 34.8753 18.4309 34.7213 18.7296L33.294 21.507L30.5536 20.3898C30.2593 20.268 29.9345 20.2652 29.6384 20.382C29.3424 20.4987 29.0948 20.7273 28.9408 21.026L27.5135 23.7878L24.7731 22.6707C24.611 22.6055 24.4386 22.5756 24.2659 22.5828C24.0931 22.59 23.9234 22.6342 23.7663 22.7127C23.6093 22.7912 23.468 22.9026 23.3505 23.0405C23.2331 23.1784 23.1418 23.34 23.0818 23.5163C23.0218 23.6925 22.9943 23.8799 23.001 24.0677C23.0076 24.2555 23.0482 24.44 23.1204 24.6108C23.1927 24.7815 23.2951 24.9351 23.4219 25.0628C23.5488 25.1905 23.6975 25.2897 23.8596 25.3549L27.6562 26.9065C27.9506 27.0284 28.2754 27.0312 28.5714 26.9144C28.8675 26.7976 29.1151 26.5691 29.2691 26.2704L30.6964 23.493L33.4367 24.6102C33.7311 24.732 34.0559 24.7348 34.352 24.618C34.648 24.5013 34.8956 24.2727 35.0496 23.974L36.4769 21.1967L39.2173 22.3138C39.3794 22.38 39.5519 22.4109 39.725 22.4046C39.8981 22.3984 40.0684 22.3551 40.2261 22.2773C40.3838 22.1995 40.5259 22.0887 40.6442 21.9512C40.7626 21.8137 40.8548 21.6522 40.9157 21.4759C40.9767 21.2997 41.005 21.1121 40.9993 20.924C40.9935 20.7358 40.9537 20.5507 40.8821 20.3792C40.8106 20.2078 40.7086 20.0533 40.5822 19.9247C40.4557 19.7961 40.3071 19.6958 40.145 19.6295L40.1307 19.6451Z" fill="#EFDCAC"/>
<path d="M18.382 13.0955L17.3356 10.2017L20.0114 8.70241C20.2985 8.54351 20.5195 8.28699 20.6346 7.97909C20.7497 7.67119 20.7514 7.33218 20.6393 7.02316L19.6078 4.09946L22.2837 2.60013C22.6048 2.42317 22.8427 2.12552 22.945 1.77264C23.0474 1.41976 23.0057 1.04056 22.8293 0.718466C22.6529 0.396371 22.3561 0.157763 22.0043 0.0551328C21.6524 -0.0474976 21.2743 -0.0057435 20.9532 0.17121L17.2459 2.27027C16.9588 2.42917 16.7378 2.68569 16.6227 2.99359C16.5076 3.30149 16.5059 3.64051 16.618 3.94953L17.6644 6.82824L14.9886 8.32758C14.7015 8.48648 14.4805 8.743 14.3654 9.05089C14.2503 9.35879 14.2486 9.69781 14.3607 10.0068L15.4071 12.9005L12.7163 14.3999C12.5573 14.4875 12.4171 14.6057 12.3036 14.7476C12.1901 14.8896 12.1056 15.0526 12.055 15.2274C11.9526 15.5802 11.9943 15.9594 12.1707 16.2815C12.3471 16.6036 12.6439 16.8422 12.9957 16.9449C13.3476 17.0475 13.7257 17.0057 14.0468 16.8288L17.7691 14.7747C18.0535 14.6134 18.2713 14.3559 18.3836 14.0482C18.4959 13.7405 18.4953 13.4028 18.382 13.0955Z" fill="#EFDCAC"/>
<path d="M7.89932 11.0433C7.74235 11.0856 7.5958 11.1566 7.46806 11.2522C7.34033 11.3478 7.23392 11.4662 7.15493 11.6005C7.07594 11.7348 7.02592 11.8825 7.00773 12.035C6.98954 12.1875 7.00354 12.3419 7.04892 12.4893L7.56186 14.151C7.63747 14.3921 7.79394 14.6039 8.00798 14.7548C8.22202 14.9056 8.48217 14.9875 8.74972 14.9882C8.8661 15.0039 8.98429 15.0039 9.10068 14.9882C9.25765 14.9458 9.4042 14.8748 9.53194 14.7792C9.65967 14.6836 9.76608 14.5652 9.84507 14.4309C9.92406 14.2966 9.97408 14.1489 9.99227 13.9964C10.0105 13.8439 9.99646 13.6895 9.95107 13.5421L9.43814 11.8804C9.39745 11.7295 9.32503 11.5877 9.22514 11.4635C9.12525 11.3393 8.99992 11.2351 8.85652 11.157C8.71312 11.079 8.55455 11.0288 8.39016 11.0092C8.22577 10.9897 8.05888 11.0013 7.89932 11.0433Z" fill="#EFDCAC"/>
<path d="M18.5681 24.9999C18.8845 24.9991 19.1928 24.9192 19.4507 24.7712L20.35 24.2601C20.5151 24.1656 20.6555 24.0458 20.7633 23.9074C20.8711 23.7691 20.944 23.615 20.9781 23.4539C21.0121 23.2927 21.0065 23.1278 20.9616 22.9684C20.9167 22.809 20.8333 22.6584 20.7163 22.525C20.5993 22.3917 20.451 22.2782 20.2797 22.1912C20.1084 22.1041 19.9176 22.0452 19.7181 22.0177C19.5186 21.9902 19.3144 21.9948 19.1171 22.031C18.9198 22.0673 18.7332 22.1346 18.5681 22.2291L17.6689 22.7402C17.397 22.89 17.192 23.1065 17.0843 23.3577C16.9767 23.6089 16.972 23.8814 17.071 24.1349C17.17 24.3884 17.3674 24.6094 17.6341 24.7652C17.9007 24.921 18.2224 25.0033 18.5515 24.9999H18.5681Z" fill="#EFDCAC"/>
<path d="M13.3593 18.3593C13.1292 18.5898 13 18.9021 13 19.2278C13 19.5534 13.1292 19.8657 13.3593 20.0962L13.867 20.6039C13.9793 20.7257 14.115 20.8235 14.266 20.8916C14.417 20.9596 14.5802 20.9964 14.7458 20.9997C14.9114 21.0031 15.076 20.973 15.2296 20.9112C15.3833 20.8493 15.5229 20.7571 15.64 20.64C15.7571 20.5229 15.8493 20.3833 15.9112 20.2296C15.973 20.076 16.0031 19.9114 15.9997 19.7458C15.9964 19.5802 15.9596 19.417 15.8916 19.266C15.8235 19.115 15.7257 18.9793 15.6039 18.867L15.0962 18.3593C14.8657 18.1292 14.5534 18 14.2278 18C13.9021 18 13.5898 18.1292 13.3593 18.3593Z" fill="#EFDCAC"/>
<path d="M28.1062 31.997H28.3716C28.5731 32.0101 28.775 31.9798 28.9658 31.9079C29.1565 31.836 29.3324 31.7239 29.4833 31.578C29.6343 31.4321 29.7574 31.2552 29.8456 31.0575C29.9338 30.8598 29.9853 30.6451 29.9973 30.4258C30.0093 30.2064 29.9814 29.9866 29.9154 29.7789C29.8494 29.5712 29.7464 29.3797 29.6124 29.2154C29.4784 29.051 29.3159 28.917 29.1343 28.821C28.9528 28.725 28.7556 28.6688 28.5541 28.6558L24.7884 28.0237C24.5902 27.9869 24.3872 27.993 24.1912 28.0416C23.9951 28.0903 23.8098 28.1805 23.6457 28.3071C23.4816 28.4337 23.3421 28.5943 23.235 28.7796C23.128 28.965 23.0555 29.1714 23.0217 29.3873C22.988 29.6031 22.9936 29.8241 23.0383 30.0375C23.0829 30.251 23.1658 30.4528 23.2821 30.6314C23.3984 30.81 23.5458 30.9619 23.7161 31.0785C23.8863 31.1951 24.0759 31.274 24.2742 31.3107L28.1062 31.997Z" fill="#EFDCAC"/>
</svg>
