<svg width="40" height="40" viewBox="0 0 40 40" fill="none" xmlns="http://www.w3.org/2000/svg">
<path d="M8.89909 13.696C9.52421 15.1576 9.64819 16.8461 9.2454 18.4122C8.8426 19.9783 7.94385 21.3023 6.73506 22.1101C4.43774 23.0617 1.68095 20.828 0.580498 17.1284C-0.0457106 15.667 -0.170592 13.978 0.231706 12.4111C0.634003 10.8442 1.53267 9.51948 2.74169 8.71104C5.03901 7.75945 7.79581 9.99652 8.89909 13.696ZM27.394 40C26.3915 40.0016 25.3986 39.77 24.4723 39.3185C23.5461 38.867 22.7048 38.2044 21.9967 37.3689C21.467 36.7458 20.7488 36.3958 20 36.3958C19.2512 36.3958 18.533 36.7458 18.0033 37.3689C16.5687 39.0386 14.631 39.9719 12.6137 39.9651C10.5964 39.9583 8.6633 39.0118 7.23682 37.3325C5.81035 35.6532 5.00639 33.3775 5.00059 31.0026C4.9948 28.6277 5.78762 26.3466 7.20588 24.6577C8.88555 22.6787 10.88 21.1089 13.0753 20.0378C15.2706 18.9667 17.6236 18.4154 20 18.4154C22.3764 18.4154 24.7294 18.9667 26.9247 20.0378C29.12 21.1089 31.1145 22.6787 32.7941 24.6577C33.8615 25.9149 34.5882 27.5165 34.8825 29.2599C35.1767 31.0033 35.0253 32.8103 34.4473 34.4524C33.8693 36.0945 32.8908 37.498 31.6353 38.4854C30.3798 39.4729 28.9039 40 27.394 40ZM19.2342 7.54242C19.5944 12.0066 17.6374 15.8764 14.8665 16.1835C12.0955 16.4907 9.55709 13.1217 9.19973 8.65762C8.83953 4.19683 10.7965 0.327033 13.5675 0.0198525C16.3385 -0.290666 18.874 3.0783 19.2342 7.54242ZM20.7658 7.54242C20.4056 12.0066 22.3626 15.8764 25.1335 16.1835C27.9045 16.4907 30.4401 13.1217 30.8003 8.65762C31.1605 4.19683 29.2035 0.327033 26.4325 0.0198525C23.6615 -0.290666 21.1231 3.0783 20.7658 7.54242ZM31.1009 13.6927C30.4741 15.1549 30.3492 16.845 30.752 18.4127C31.1549 19.9804 32.0547 21.3055 33.2649 22.1134C35.5623 23.0617 38.3191 20.828 39.4195 17.1284C40.0457 15.667 40.1706 13.978 39.7683 12.4111C39.366 10.8442 38.4673 9.51948 37.2583 8.71104C34.961 7.75945 32.2042 9.99319 31.1009 13.6927Z" fill="#21273B"/>
</svg>
