<svg width="44" height="44" viewBox="0 0 44 44" fill="none" xmlns="http://www.w3.org/2000/svg">
	<path d="M40.3263 10.9347L21.3618 29.9323C19.4733 31.8241 13.8674 32.7003 12.6151 31.4457C11.3627 30.1912 12.2175 24.5755 14.106 22.6837L33.0904 3.66616C33.5585 3.1545 34.1253 2.7432 34.7566 2.45704C35.3878 2.17088 36.0704 2.01575 36.7632 2.00114C37.4558 1.98654 38.1444 2.11267 38.7871 2.37197C39.4298 2.63127 40.0134 3.01839 40.5026 3.50986C40.9919 4.00133 41.3767 4.58699 41.6337 5.23152C41.8908 5.87606 42.015 6.56607 41.9985 7.25997C41.982 7.95386 41.8252 8.63728 41.5379 9.26884C41.2505 9.9004 40.8384 10.4671 40.3263 10.9347Z" stroke="#499CCA" stroke-width="3" stroke-linecap="round" stroke-linejoin="round"/>
	<path d="M19.891 6.15527H9.95156C7.84267 6.15527 5.82029 6.99448 4.32907 8.4883C2.83788 9.98213 2 12.0082 2 14.1208V34.0345C2 36.1471 2.83788 38.1731 4.32907 39.6668C5.82029 41.1608 7.84267 41.9999 9.95156 41.9999H31.8184C36.2116 41.9999 37.782 38.4155 37.782 34.0345V24.0776" stroke="#499CCA" stroke-width="3" stroke-linecap="round" stroke-linejoin="round"/>
</svg>
