<svg width="40" height="40" viewBox="0 0 40 40" fill="none" xmlns="http://www.w3.org/2000/svg">
<path d="M34.7826 0C33.8221 0 33.0434 0.778635 33.0434 1.73913V3.47826H31.3043C30.3438 3.47826 29.5652 4.25691 29.5652 5.21739C29.5652 6.17788 30.3438 6.95652 31.3043 6.95652H33.0434V8.69566C33.0434 9.65614 33.8221 10.4348 34.7826 10.4348C35.7431 10.4348 36.5217 9.65614 36.5217 8.69566V6.95652H38.2608C39.2213 6.95652 40 6.17788 40 5.21739C40 4.25691 39.2213 3.47826 38.2608 3.47826H36.5217V1.73913C36.5217 0.778635 35.7431 0 34.7826 0Z" fill="#EFDCAC"/>
<path d="M37.3336 14.9858C37.0383 14.0719 36.0028 13.6656 35.1193 14.0427C34.236 14.4199 33.8304 15.4423 34.1071 16.3621C34.9791 19.259 34.9955 22.3602 34.1341 25.2863C33.1084 28.7709 30.9016 31.7898 27.8927 33.8248C24.8838 35.8599 21.2604 36.7841 17.6444 36.439C14.0284 36.0938 10.6453 34.5009 8.07566 31.9335C5.50606 29.366 3.91027 25.9841 3.56215 22.3684C3.21403 18.7526 4.13531 15.1284 6.16787 12.1179C8.20042 9.10732 11.2175 6.8981 14.7012 5.86942C17.6266 5.00563 20.7277 5.01947 23.6254 5.88899C24.5454 6.16504 25.5675 5.75853 25.944 4.87486C26.3204 3.99121 25.9132 2.95605 24.999 2.66139C21.3494 1.48503 17.416 1.4287 13.7129 2.52215C9.45171 3.78039 5.76138 6.48259 3.27526 10.165C0.789144 13.8473 -0.337719 18.2802 0.0880843 22.7029C0.513875 27.1255 2.46579 31.262 5.60879 34.4023C8.75178 37.5427 12.8899 39.4912 17.3127 39.9133C21.7357 40.3356 26.1677 39.2049 29.848 36.7159C33.5284 34.2267 36.2275 30.5342 37.4823 26.2719C38.5725 22.5679 38.513 18.6343 37.3336 14.9858Z" fill="#EFDCAC"/>
<path d="M12.2511 17.0918L12.9748 16.7299C13.2061 16.6143 13.4783 16.7825 13.4783 17.0411V28.6522C13.4783 29.6127 14.2569 30.3913 15.2174 30.3913C16.1779 30.3913 16.9565 29.6127 16.9565 28.6522V14.7391C16.9565 13.7786 16.1779 13 15.2174 13H13.8889C13.6188 13 13.3525 13.0629 13.111 13.1836L10.8598 14.3092C10.3329 14.5727 10 15.1113 10 15.7005C10 16.8569 11.2169 17.6089 12.2511 17.0918Z" fill="#EFDCAC"/>
<path d="M22.2511 17.0918L22.9748 16.7299C23.2061 16.6143 23.4783 16.7825 23.4783 17.0411V28.6522C23.4783 29.6127 24.2569 30.3913 25.2174 30.3913C26.1779 30.3913 26.9565 29.6127 26.9565 28.6522V14.7391C26.9565 13.7786 26.1779 13 25.2174 13H23.8889C23.6188 13 23.3525 13.0629 23.111 13.1836L20.8598 14.3092C20.3329 14.5727 20 15.1113 20 15.7005C20 16.8569 21.2169 17.6089 22.2511 17.0918Z" fill="#EFDCAC"/>
</svg>
