<svg width="32" height="40" viewBox="0 0 32 40" fill="none" xmlns="http://www.w3.org/2000/svg">
<path fill-rule="evenodd" clip-rule="evenodd" d="M32 14.5455C32 21.9642 25.8906 28.0856 17.9962 28.9787C17.9988 29.0158 18 29.0533 18 29.0909V32.7273H20C21.1046 32.7273 22 33.5413 22 34.5455C22 35.5496 21.1046 36.3636 20 36.3636H18V38.1818C18 39.186 17.1046 40 16 40C14.8954 40 14 39.186 14 38.1818V36.3636H12C10.8954 36.3636 10 35.5496 10 34.5455C10 33.5413 10.8954 32.7273 12 32.7273H14V29.0909C14 29.0533 14.0012 29.0158 14.0038 28.9787C6.10932 28.0856 0 21.9642 0 14.5455C0 6.51222 7.16344 0 16 0C24.8366 0 32 6.51222 32 14.5455ZM4.0073 14.5455C4.0073 20.5667 9.37662 25.4478 16 25.4478C22.6234 25.4478 27.9926 20.5667 27.9926 14.5455C27.9926 8.5242 22.6234 3.643 16 3.643C9.37662 3.643 4.0073 8.5242 4.0073 14.5455Z" fill="#EFDCAC"/>
</svg>
