<svg width="40" height="40" viewBox="0 0 40 40" fill="none" xmlns="http://www.w3.org/2000/svg">
<path d="M34.7826 0C33.8221 0 33.0434 0.778635 33.0434 1.73913V3.47826H31.3043C30.3438 3.47826 29.5652 4.25691 29.5652 5.21739C29.5652 6.17788 30.3438 6.95652 31.3043 6.95652H33.0434V8.69566C33.0434 9.65614 33.8221 10.4348 34.7826 10.4348C35.7431 10.4348 36.5217 9.65614 36.5217 8.69566V6.95652H38.2608C39.2213 6.95652 40 6.17788 40 5.21739C40 4.25691 39.2213 3.47826 38.2608 3.47826H36.5217V1.73913C36.5217 0.778635 35.7431 0 34.7826 0Z" fill="#EFDCAC"/>
<path d="M37.3336 14.9858C37.0383 14.0719 36.0028 13.6656 35.1193 14.0427C34.236 14.4199 33.8304 15.4423 34.1071 16.3621C34.9791 19.259 34.9955 22.3602 34.1341 25.2863C33.1084 28.7709 30.9016 31.7898 27.8927 33.8248C24.8838 35.8599 21.2604 36.7841 17.6444 36.439C14.0284 36.0938 10.6453 34.5009 8.07566 31.9335C5.50606 29.366 3.91027 25.9841 3.56215 22.3684C3.21403 18.7526 4.13531 15.1284 6.16787 12.1179C8.20042 9.10732 11.2175 6.8981 14.7012 5.86942C17.6266 5.00563 20.7277 5.01947 23.6254 5.88899C24.5454 6.16504 25.5675 5.75853 25.944 4.87486C26.3204 3.99121 25.9132 2.95605 24.999 2.66139C21.3494 1.48503 17.416 1.4287 13.7129 2.52215C9.45171 3.78039 5.76138 6.48259 3.27526 10.165C0.789144 13.8473 -0.337719 18.2802 0.0880843 22.7029C0.513875 27.1255 2.46579 31.262 5.60879 34.4023C8.75178 37.5427 12.8899 39.4912 17.3127 39.9133C21.7357 40.3356 26.1677 39.2049 29.848 36.7159C33.5284 34.2267 36.2275 30.5342 37.4823 26.2719C38.5725 22.5679 38.513 18.6343 37.3336 14.9858Z" fill="#EFDCAC"/>
<path d="M27.1667 16.6H22.0333C21.8307 16.6 21.6667 16.7612 21.6667 16.96V19.84C21.6667 20.0389 21.8307 20.2 22.0333 20.2H25.3333C27.3584 20.2 29 21.8117 29 23.8V27.4C29 29.3883 27.3584 31 25.3333 31H21.6667C19.6416 31 18 29.3883 18 27.4C18 26.4059 18.8208 25.6 19.8333 25.6H20.75C21.2562 25.6 21.6667 26.003 21.6667 26.5C21.6667 26.997 22.0771 27.4 22.5833 27.4H23.5C24.5125 27.4 25.3333 26.5941 25.3333 25.6C25.3333 24.6059 24.5125 23.8 23.5 23.8H21.6667C19.6416 23.8 18 22.1883 18 20.2V16.6C18 14.6118 19.6416 13 21.6667 13H27.1667C28.1792 13 29 13.8059 29 14.8C29 15.7941 28.1792 16.6 27.1667 16.6Z" fill="#EFDCAC"/>
<path d="M10.2511 17.0918L10.9748 16.7299C11.2061 16.6143 11.4783 16.7825 11.4783 17.0411V28.6522C11.4783 29.6127 12.2569 30.3913 13.2174 30.3913C14.1779 30.3913 14.9565 29.6127 14.9565 28.6522V14.7391C14.9565 13.7786 14.1779 13 13.2174 13H11.8889C11.6188 13 11.3525 13.0629 11.111 13.1836L8.85984 14.3092C8.33289 14.5727 8 15.1113 8 15.7005C8 16.8569 9.21689 17.6089 10.2511 17.0918Z" fill="#EFDCAC"/>
</svg>
