<svg width="44" height="44" viewBox="0 0 44 44" fill="none" xmlns="http://www.w3.org/2000/svg">
<path d="M2 5.55556C2 4.311 2 3.68871 2.2422 3.21336C2.45527 2.79522 2.79522 2.45527 3.21336 2.2422C3.68871 2 4.311 2 5.55556 2H38.4444C39.6891 2 40.3113 2 40.7867 2.2422C41.2049 2.45527 41.5447 2.79522 41.7578 3.21336C42 3.68871 42 4.311 42 5.55556V9.41613C42 9.95967 42 10.2314 41.9387 10.4872C41.8842 10.7139 41.7944 10.9307 41.6724 11.1295C41.5351 11.3538 41.3429 11.546 40.9587 11.9303L27.4858 25.4031C27.1016 25.7873 26.9093 25.9796 26.772 26.2038C26.65 26.4027 26.5602 26.6193 26.5058 26.8462C26.4444 27.102 26.4444 27.3738 26.4444 27.9171V33.1111L17.5556 42V27.9171C17.5556 27.3738 17.5556 27.102 17.4942 26.8462C17.4397 26.6193 17.3499 26.4027 17.2281 26.2038C17.0907 25.9796 16.8985 25.7873 16.5142 25.4031L3.0414 11.9303C2.65707 11.546 2.46489 11.3538 2.32747 11.1295C2.20562 10.9307 2.11584 10.7139 2.0614 10.4872C2 10.2314 2 9.95967 2 9.41613V5.55556Z" stroke="#EDEDED" stroke-width="4" stroke-linecap="round" stroke-linejoin="round"/>
</svg>
