<svg width="40" height="40" viewBox="0 0 40 40" fill="none" xmlns="http://www.w3.org/2000/svg">
<path d="M34.7826 0C33.8221 0 33.0434 0.778635 33.0434 1.73913V3.47826H31.3043C30.3438 3.47826 29.5652 4.25691 29.5652 5.21739C29.5652 6.17788 30.3438 6.95652 31.3043 6.95652H33.0434V8.69566C33.0434 9.65614 33.8221 10.4348 34.7826 10.4348C35.7431 10.4348 36.5217 9.65614 36.5217 8.69566V6.95652H38.2608C39.2213 6.95652 40 6.17788 40 5.21739C40 4.25691 39.2213 3.47826 38.2608 3.47826H36.5217V1.73913C36.5217 0.778635 35.7431 0 34.7826 0Z" fill="#EFDCAC"/>
<path d="M37.3336 14.9858C37.0383 14.0719 36.0028 13.6656 35.1193 14.0427C34.236 14.4199 33.8304 15.4423 34.1071 16.3621C34.9791 19.259 34.9955 22.3602 34.1341 25.2863C33.1084 28.7709 30.9016 31.7898 27.8927 33.8248C24.8838 35.8599 21.2604 36.7841 17.6444 36.439C14.0284 36.0938 10.6453 34.5009 8.07566 31.9335C5.50606 29.366 3.91027 25.9841 3.56215 22.3684C3.21403 18.7526 4.13531 15.1284 6.16787 12.1179C8.20042 9.10732 11.2175 6.8981 14.7012 5.86942C17.6266 5.00563 20.7277 5.01947 23.6254 5.88899C24.5454 6.16504 25.5675 5.75853 25.944 4.87486C26.3204 3.99121 25.9132 2.95605 24.999 2.66139C21.3494 1.48503 17.416 1.4287 13.7129 2.52215C9.45171 3.78039 5.76138 6.48259 3.27526 10.165C0.789144 13.8473 -0.337719 18.2802 0.0880843 22.7029C0.513875 27.1255 2.46579 31.262 5.60879 34.4023C8.75178 37.5427 12.8899 39.4912 17.3127 39.9133C21.7357 40.3356 26.1677 39.2049 29.848 36.7159C33.5284 34.2267 36.2275 30.5342 37.4823 26.2719C38.5725 22.5679 38.513 18.6343 37.3336 14.9858Z" fill="#EFDCAC"/>
<path d="M22.1667 14.6H17.0333C16.8307 14.6 16.6667 14.7612 16.6667 14.96V17.84C16.6667 18.0389 16.8307 18.2 17.0333 18.2H20.3333C22.3584 18.2 24 19.8117 24 21.8V25.4C24 27.3883 22.3584 29 20.3333 29H16.6667C14.6416 29 13 27.3883 13 25.4C13 24.4059 13.8208 23.6 14.8333 23.6H15.75C16.2562 23.6 16.6667 24.003 16.6667 24.5C16.6667 24.997 17.0771 25.4 17.5833 25.4H18.5C19.5125 25.4 20.3333 24.5941 20.3333 23.6C20.3333 22.6059 19.5125 21.8 18.5 21.8H16.6667C14.6416 21.8 13 20.1883 13 18.2V14.6C13 12.6118 14.6416 11 16.6667 11H22.1667C23.1792 11 24 11.8059 24 12.8C24 13.7941 23.1792 14.6 22.1667 14.6Z" fill="#EFDCAC"/>
<path d="M22.1667 14.6H17.0333C16.8307 14.6 16.6667 14.7612 16.6667 14.96V17.84C16.6667 18.0389 16.8307 18.2 17.0333 18.2H20.3333C22.3584 18.2 24 19.8117 24 21.8V25.4C24 27.3883 22.3584 29 20.3333 29H16.6667C14.6416 29 13 27.3883 13 25.4C13 24.4059 13.8208 23.6 14.8333 23.6H15.75C16.2562 23.6 16.6667 24.003 16.6667 24.5C16.6667 24.997 17.0771 25.4 17.5833 25.4H18.5C19.5125 25.4 20.3333 24.5941 20.3333 23.6C20.3333 22.6059 19.5125 21.8 18.5 21.8H16.6667C14.6416 21.8 13 20.1883 13 18.2V14.6C13 12.6118 14.6416 11 16.6667 11H22.1667C23.1792 11 24 11.8059 24 12.8C24 13.7941 23.1792 14.6 22.1667 14.6Z" fill="#EFDCAC"/>
</svg>
