<svg width="40" height="40" viewBox="0 0 40 40" fill="none" xmlns="http://www.w3.org/2000/svg">
<path d="M34.7826 0C33.8221 0 33.0434 0.778635 33.0434 1.73913V3.47826H31.3043C30.3438 3.47826 29.5652 4.25691 29.5652 5.21739C29.5652 6.17788 30.3438 6.95652 31.3043 6.95652H33.0434V8.69566C33.0434 9.65614 33.8221 10.4348 34.7826 10.4348C35.7431 10.4348 36.5217 9.65614 36.5217 8.69566V6.95652H38.2608C39.2213 6.95652 40 6.17788 40 5.21739C40 4.25691 39.2213 3.47826 38.2608 3.47826H36.5217V1.73913C36.5217 0.778635 35.7431 0 34.7826 0Z" fill="#EFDCAC"/>
<path d="M37.3336 14.9858C37.0383 14.0719 36.0028 13.6656 35.1193 14.0427C34.236 14.4199 33.8304 15.4423 34.1071 16.3621C34.9791 19.259 34.9955 22.3602 34.1341 25.2863C33.1084 28.7709 30.9016 31.7898 27.8927 33.8248C24.8838 35.8599 21.2604 36.7841 17.6444 36.439C14.0284 36.0938 10.6453 34.5009 8.07566 31.9335C5.50606 29.366 3.91027 25.9841 3.56215 22.3684C3.21403 18.7526 4.13531 15.1284 6.16787 12.1179C8.20042 9.10732 11.2175 6.8981 14.7012 5.86942C17.6266 5.00563 20.7277 5.01947 23.6254 5.88899C24.5454 6.16504 25.5675 5.75853 25.944 4.87486C26.3204 3.99121 25.9132 2.95605 24.999 2.66139C21.3494 1.48503 17.416 1.4287 13.7129 2.52215C9.45171 3.78039 5.76138 6.48259 3.27526 10.165C0.789144 13.8473 -0.337719 18.2802 0.0880843 22.7029C0.513875 27.1255 2.46579 31.262 5.60879 34.4023C8.75178 37.5427 12.8899 39.4912 17.3127 39.9133C21.7357 40.3356 26.1677 39.2049 29.848 36.7159C33.5284 34.2267 36.2275 30.5342 37.4823 26.2719C38.5725 22.5679 38.513 18.6343 37.3336 14.9858Z" fill="#EFDCAC"/>
<path fill-rule="evenodd" clip-rule="evenodd" d="M27.3333 27.4V29.2C27.3333 30.1941 26.5872 31 25.6667 31C24.7462 31 24 30.1941 24 29.2V27.4H20.6667C19.7462 27.4 19 26.5941 19 25.6V24.225C19 23.9454 19.0602 23.6699 19.1759 23.42L23.5393 13.995C23.8217 13.3852 24.3988 13 25.03 13H25.6667C26.5872 13 27.3333 13.8059 27.3333 14.8V23.8C28.2538 23.8 29 24.6059 29 25.6C29 26.5941 28.2538 27.4 27.3333 27.4ZM24 20.2L22.3333 23.8H24V20.2Z" fill="#EFDCAC"/>
<path d="M11.2511 18.0918L11.9748 17.7299C12.2061 17.6143 12.4783 17.7825 12.4783 18.0411V29.6522C12.4783 30.6127 13.2569 31.3913 14.2174 31.3913C15.1779 31.3913 15.9565 30.6127 15.9565 29.6522V15.7391C15.9565 14.7786 15.1779 14 14.2174 14H12.8889C12.6188 14 12.3525 14.0629 12.111 14.1836L9.85984 15.3092C9.33289 15.5727 9 16.1113 9 16.7005C9 17.8569 10.2169 18.6089 11.2511 18.0918Z" fill="#EFDCAC"/>
</svg>
