<svg width="36" height="40" viewBox="0 0 36 40" fill="none" xmlns="http://www.w3.org/2000/svg">
<path fill-rule="evenodd" clip-rule="evenodd" d="M31.421 34.1309C31.421 35.293 30.4189 35.7897 29.1842 35.7897H26.9473C25.7126 35.7897 24.7105 35.293 24.7105 34.1309V32.0256C24.7105 29.6993 22.7085 27.3687 20.2368 27.3687H15.7631C13.2914 27.3687 11.2894 29.6993 11.2894 32.0256V34.1309C11.2894 35.293 10.2873 35.7897 9.05259 35.7897H6.81575C5.58101 35.7897 4.57891 35.293 4.57891 34.1309V17.156C4.57891 16.876 4.69745 16.6087 4.90548 16.4108L16.3962 5.59816C17.2708 4.77501 18.6867 4.77501 19.5591 5.59816L31.0944 16.4529C31.3025 16.6508 31.421 16.9182 31.421 17.1961V34.1309ZM35.8947 16.0529C35.8947 15.495 35.6599 14.9624 35.2438 14.5666L21.1539 1.24025C19.4092 -0.408167 16.5751 -0.414444 14.8236 1.22766L0.762862 14.4172C0.342336 14.813 0.105225 15.3477 0.105225 15.9077V36.2361C0.105225 38.5625 2.1072 40.0003 4.57891 40.0003H11.2894C13.7611 40.0003 15.7631 38.5625 15.7631 36.2361V34.1309C15.7631 32.9688 16.7652 32.0256 18 32.0256C19.2347 32.0256 20.2368 32.9688 20.2368 34.1309V36.2361C20.2368 38.5625 22.2388 40.0003 24.7105 40.0003H31.421C33.8927 40.0003 35.8947 38.5625 35.8947 36.2361V16.0529Z" fill="#21273B"/>
</svg>
