<svg width="130" height="130" viewBox="0 0 130 130" fill="none" xmlns="http://www.w3.org/2000/svg">
	<g clip-path="url(#clip0_806_992)">
		<path d="M65 129.5C100.622 129.5 129.5 100.622 129.5 65C129.5 29.3776 100.622 0.5 65 0.5C29.3776 0.5 0.5 29.3776 0.5 65C0.5 100.622 29.3776 129.5 65 129.5Z" fill="white" stroke="#C0BDEC"/>
		<path d="M67.8606 71.6477L76.4303 51.6477L85 85.0001H45L50.7336 64.9858L56.4426 71.6477L62.1516 64.9858L67.8606 71.6477Z" fill="#8C919B"/>
		<path d="M56.418 51.6619C56.418 55.3295 53.8643 58.3238 50.709 58.3238C47.5537 58.3238 45 55.3295 45 51.6476C45 47.9799 47.566 45 50.709 45C53.8521 45 56.418 47.9799 56.418 51.6619Z" fill="#8C919B"/>
	</g>
	<defs>
		<clipPath id="clip0_806_992">
			<rect width="130" height="130" fill="white"/>
		</clipPath>
	</defs>
</svg>
