<svg width="40" height="40" viewBox="0 0 40 40" fill="none" xmlns="http://www.w3.org/2000/svg">
<path fill-rule="evenodd" clip-rule="evenodd" d="M25 4.99992C25 4.07945 25.7461 3.33325 26.6666 3.33325H33.3333C35.1743 3.33325 36.6666 4.82564 36.6666 6.66659V13.3333C36.6666 14.2537 35.9205 14.9999 35 14.9999C34.0795 14.9999 33.3333 14.2537 33.3333 13.3333V9.02139L25.7785 16.5762C25.6951 16.6596 25.605 16.7323 25.5101 16.7944C27.279 19.0569 28.3333 21.9053 28.3333 24.9999C28.3333 32.3638 22.3638 38.3333 15 38.3333C7.63616 38.3333 1.66663 32.3638 1.66663 24.9999C1.66663 17.6361 7.63616 11.6666 15 11.6666C18.0931 11.6666 20.9403 12.7199 23.2023 14.4874C23.2645 14.3922 23.3373 14.3021 23.4208 14.2186L30.9726 6.66659H26.6666C25.7461 6.66659 25 5.92039 25 4.99992ZM15 34.9938C9.48048 34.9938 5.00604 30.5194 5.00604 24.9999C5.00604 19.4804 9.48048 15.006 15 15.006C20.5195 15.006 24.9938 19.4804 24.9938 24.9999C24.9938 30.5194 20.5195 34.9938 15 34.9938Z" fill="#EFDCAC"/>
</svg>
