<svg width="40" height="40" viewBox="0 0 40 40" fill="none" xmlns="http://www.w3.org/2000/svg">
<path d="M21.6666 8.33335C21.6666 7.41289 20.9204 6.66669 19.9999 6.66669C19.0794 6.66669 18.3333 7.41289 18.3333 8.33335C18.3333 9.25382 19.0794 10 19.9999 10C20.9204 10 21.6666 9.25382 21.6666 8.33335Z" stroke="white" stroke-width="3" stroke-linecap="round" stroke-linejoin="round"/>
<path d="M21.6666 20C21.6666 19.0795 20.9204 18.3333 19.9999 18.3333C19.0794 18.3333 18.3333 19.0795 18.3333 20C18.3333 20.9205 19.0794 21.6666 19.9999 21.6666C20.9204 21.6666 21.6666 20.9205 21.6666 20Z" stroke="white" stroke-width="3" stroke-linecap="round" stroke-linejoin="round"/>
<path d="M21.6666 31.6667C21.6666 30.7462 20.9204 30 19.9999 30C19.0794 30 18.3333 30.7462 18.3333 31.6667C18.3333 32.5872 19.0794 33.3333 19.9999 33.3333C20.9204 33.3333 21.6666 32.5872 21.6666 31.6667Z" stroke="white" stroke-width="3" stroke-linecap="round" stroke-linejoin="round"/>
</svg>
