<svg width="40" height="40" viewBox="0 0 40 40" fill="none" xmlns="http://www.w3.org/2000/svg">
<path d="M34.7826 0C33.8221 0 33.0434 0.778635 33.0434 1.73913V3.47826H31.3043C30.3438 3.47826 29.5652 4.25691 29.5652 5.21739C29.5652 6.17788 30.3438 6.95652 31.3043 6.95652H33.0434V8.69566C33.0434 9.65614 33.8221 10.4348 34.7826 10.4348C35.7431 10.4348 36.5217 9.65614 36.5217 8.69566V6.95652H38.2608C39.2213 6.95652 40 6.17788 40 5.21739C40 4.25691 39.2213 3.47826 38.2608 3.47826H36.5217V1.73913C36.5217 0.778635 35.7431 0 34.7826 0Z" fill="#EFDCAC"/>
<path d="M37.3336 14.9858C37.0383 14.0719 36.0028 13.6656 35.1193 14.0427C34.236 14.4199 33.8304 15.4423 34.1071 16.3621C34.9791 19.259 34.9955 22.3602 34.1341 25.2863C33.1084 28.7709 30.9016 31.7898 27.8927 33.8248C24.8838 35.8599 21.2604 36.7841 17.6444 36.439C14.0284 36.0938 10.6453 34.5009 8.07566 31.9335C5.50606 29.366 3.91027 25.9841 3.56215 22.3684C3.21403 18.7526 4.13531 15.1284 6.16787 12.1179C8.20042 9.10732 11.2175 6.8981 14.7012 5.86942C17.6266 5.00563 20.7277 5.01947 23.6254 5.88899C24.5454 6.16504 25.5675 5.75853 25.944 4.87486C26.3204 3.99121 25.9132 2.95605 24.999 2.66139C21.3494 1.48503 17.416 1.4287 13.7129 2.52215C9.45171 3.78039 5.76138 6.48259 3.27526 10.165C0.789144 13.8473 -0.337719 18.2802 0.0880843 22.7029C0.513875 27.1255 2.46579 31.262 5.60879 34.4023C8.75178 37.5427 12.8899 39.4912 17.3127 39.9133C21.7357 40.3356 26.1677 39.2049 29.848 36.7159C33.5284 34.2267 36.2275 30.5342 37.4823 26.2719C38.5725 22.5679 38.513 18.6343 37.3336 14.9858Z" fill="#EFDCAC"/>
<path fill-rule="evenodd" clip-rule="evenodd" d="M30 26.4C30 28.3883 28.5077 30 26.6667 30H21.6667C20.7462 30 20 29.1941 20 28.2C20 27.2059 20.7462 26.4 21.6667 26.4H26.3333C26.5173 26.4 26.6667 26.2389 26.6667 26.04V23.16C26.6667 22.9611 26.5173 22.8 26.3333 22.8H23.3333C21.4924 22.8 20 21.1883 20 19.2V15.6C20 13.6118 21.4924 12 23.3333 12H26.6667C28.5077 12 30 13.6118 30 15.6V26.4ZM26.6667 17.4C26.6667 16.4059 25.9205 15.6 25 15.6C24.0795 15.6 23.3333 16.4059 23.3333 17.4C23.3333 18.3941 24.0795 19.2 25 19.2C25.9205 19.2 26.6667 18.3941 26.6667 17.4Z" fill="#EFDCAC"/>
<path d="M12.2511 16.0918L12.9748 15.7299C13.2061 15.6143 13.4783 15.7825 13.4783 16.0411V27.6522C13.4783 28.6127 14.2569 29.3913 15.2174 29.3913C16.1779 29.3913 16.9565 28.6127 16.9565 27.6522V13.7391C16.9565 12.7786 16.1779 12 15.2174 12H13.8889C13.6188 12 13.3525 12.0629 13.111 12.1836L10.8598 13.3092C10.3329 13.5727 10 14.1113 10 14.7005C10 15.8569 11.2169 16.6089 12.2511 16.0918Z" fill="#EFDCAC"/>
</svg>
