<svg width="40" height="40" viewBox="0 0 40 40" fill="none" xmlns="http://www.w3.org/2000/svg">
<path fill-rule="evenodd" clip-rule="evenodd" d="M0 20C0 8.9543 8.9543 0 20 0C31.0456 0 40 8.9543 40 20C40 31.0456 31.0456 40 20 40C8.9543 40 0 31.0456 0 20ZM18 22C18 23.1046 18.8954 24 20 24C21.1046 24 22 23.1046 22 22V12C22 10.8954 21.1046 10 20 10C18.8954 10 18 10.8954 18 12V22ZM22 27.9776C22 26.873 21.1046 25.9776 20 25.9776C18.8954 25.9776 18 26.873 18 27.9776V28C18 29.1046 18.8954 30 20 30C21.1046 30 22 29.1046 22 28V27.9776Z" fill="#97A3FC"/>
</svg>
