<svg width="37" height="37" viewBox="0 0 45 45" fill="none" xmlns="http://www.w3.org/2000/svg">
<g clip-path="url(#clip0_729_785)">
<path fill-rule="evenodd" clip-rule="evenodd" d="M18.5 34.8235C9.49811 34.8235 2.17647 27.5019 2.17647
	  18.5C2.17647 9.49811 9.49811 2.17647 18.5 2.17647C27.5019 2.17647 34.8235 9.49811 34.8235 18.5C34.8235 
	  27.5019 27.5019 34.8235 18.5 34.8235ZM18.5 0C8.29889 0 0 8.29889 0 18.5C0 28.7011 8.29889 37 18.5 37C28.7011 
	  37 37 28.7011 37 18.5C37 8.29889 28.7011 0 18.5 0ZM18.5011 26.1155L19.5893 26.1176H18.5011L18.5011 26.1155ZM14.504 
	  7.8943C16.1168 6.64718 18.1975 6.2293 20.2216 6.75165C22.4351 7.32405 24.235 9.12401 24.8074 11.3375C25.2579 13.0808 
	  25.0142 14.8699 24.124 16.376C23.2469 17.8604 21.7886 18.9573 20.1236 19.3839C19.8581 19.4514 19.5882 19.669 19.5882 
	  19.9977V21.7649H17.4118V19.9977C17.4118 18.7244 18.3041 17.6057 19.5839 17.2749C20.6939 16.9919 21.6646 16.2607 22.2501 
	  15.2704C22.8442 14.2627 23.0053 13.0591 22.7006 11.8816C22.3219 10.4234 21.1357 9.23719 19.6775 8.85847C18.3106 8.50805 
	  16.9112 8.7823 15.836 9.61588C14.763 10.4473 14.1471 11.7031 14.1471 13.0591H11.9706C11.9706 11.0241 12.8934 9.14141 
	  14.504 7.89428V7.8943ZM18.5011 23.9412C17.2997 23.9412 16.3246 24.9184 16.3246 26.1177C16.3246 27.3169 17.2997 28.2941 
	  18.5011 28.2941C19.7003 28.2941 20.6776 27.3169 20.6776 26.1177C20.6776 24.9184 19.7003 23.9412 18.5011 23.9412Z" fill="#EFDCAC"/>
</g>
<defs>
<clipPath id="clip0_729_785">
<rect width="37" height="37" fill="white"/>
</clipPath>
</defs>
</svg>
