<svg width="40" height="40" viewBox="0 0 40 40" fill="none" xmlns="http://www.w3.org/2000/svg">
	<path fill-rule="evenodd" clip-rule="evenodd" d="M20 37.6471C10.2682 37.6471 2.35294 29.7318 2.35294 20C2.35294 10.2682 10.2682 2.35294 20 2.35294C29.7318 2.35294 37.6471 10.2682 37.6471 20C37.6471 29.7318 29.7318 37.6471 20 37.6471ZM20 0C8.97177 0 0 8.97177 0 20C0 31.0282 8.97177 40 20 40C31.0282 40 40 31.0282 40 20C40 8.97177 31.0282 0 20 0ZM20.0012 28.2329L21.1776 28.2353H20.0012L20.0012 28.2329ZM15.68 8.53438C17.4235 7.18615 19.6729 6.73437 21.8612 7.29908C24.2541 7.9179 26.2 9.86379 26.8188 12.2567C27.3059 14.1414 27.0424 16.0755 26.08 17.7038C25.1318 19.3085 23.5553 20.4944 21.7553 20.9555C21.4682 21.0285 21.1765 21.2638 21.1765 21.6191V23.5297H18.8235V21.6191C18.8235 20.2426 19.7882 19.0332 21.1718 18.6755C22.3718 18.3697 23.4212 17.5791 24.0541 16.5085C24.6965 15.4191 24.8706 14.1179 24.5412 12.845C24.1318 11.2685 22.8494 9.98615 21.2729 9.57673C19.7953 9.1979 18.2824 9.49438 17.12 10.3955C15.96 11.2944 15.2941 12.652 15.2941 14.1179H12.9412C12.9412 11.9179 13.9388 9.8826 15.68 8.53435V8.53438ZM20.0012 25.8824C18.7024 25.8824 17.6483 26.9388 17.6483 28.2353C17.6483 29.5318 18.7024 30.5883 20.0012 30.5883C21.2976 30.5883 22.3541 29.5318 22.3541 28.2353C22.3541 26.9389 21.2977 25.8824 20.0012 25.8824Z" fill="#EFDCAC"/>
</svg>
