<svg width="37" height="37" viewBox="0 0 47 49" fill="none" xmlns="http://www.w3.org/2000/svg">
<path d="M18.5979 2.91479C28.8842 2.91479 37.2472 11.2591 37.2472 21.5224C37.2472 31.7857 28.8842 40.0786 18.5979 40.0786C8.31152 40.0786 0 31.7857 0 21.5224C0 11.2591 8.31152 2.91479 18.5979 2.91479ZM18.7009 24.2176L24.6237 30.1786C25.3518 30.905 26.5453 30.905 27.2734 30.1786C27.9483 29.5052 27.9483 28.3127 27.2734 27.5862L21.3506 21.6253L27.2734 15.6643C27.9483 14.9379 27.9483 13.747 27.2734 13.072C26.5453 12.3455 25.3518 12.3455 24.6237 13.072L18.7009 19.0329L12.7781 13.072C12.05 12.3455 10.8565 12.3455 10.1284 13.072C9.45352 13.7453 9.45352 14.9379 10.1284 15.6643L16.0512 21.6253L10.1284 27.5862C9.45352 28.3127 9.45352 29.5035 10.1284 30.1786C10.8565 30.905 12.05 30.905 12.7781 30.1786L18.7009 24.2176Z" fill="#F3756C"/>
</svg>
