<svg width="40" height="40" viewBox="0 0 40 40" fill="none" xmlns="http://www.w3.org/2000/svg">
	<path d="M12.8572 18.5714H27.1429C27.5218 18.5714 27.8851 18.7219 28.153 18.9898C28.4209 19.2577 28.5714 19.6211 28.5714 20C28.5714 20.3789 28.4209 20.7422 28.153 21.0101C27.8851 21.278 27.5218 21.4286 27.1429 21.4286H12.8572C12.4783 21.4286 12.1149 21.278 11.847 21.0101C11.5791 20.7422 11.4286 20.3789 11.4286 20C11.4286 19.6211 11.5791 19.2577 11.847 18.9898C12.1149 18.7219 12.4783 18.5714 12.8572 18.5714Z" fill="#F3756C"/>
	<path d="M20 37.1429C22.2512 37.1429 24.4804 36.6994 26.5603 35.8379C28.6402 34.9764 30.53 33.7137 32.1218 32.1218C33.7137 30.53 34.9764 28.6402 35.8379 26.5603C36.6994 24.4804 37.1429 22.2512 37.1429 20C37.1429 17.7488 36.6994 15.5196 35.8379 13.4397C34.9764 11.3598 33.7137 9.47003 32.1218 7.87817C30.53 6.28631 28.6402 5.02357 26.5603 4.16207C24.4804 3.30056 22.2512 2.85714 20 2.85714C15.4534 2.85714 11.0931 4.66326 7.87817 7.87817C4.66326 11.0931 2.85714 15.4534 2.85714 20C2.85714 24.5466 4.66326 28.9069 7.87817 32.1218C11.0931 35.3367 15.4534 37.1429 20 37.1429ZM20 40C14.6957 40 9.60859 37.8929 5.85786 34.1421C2.10714 30.3914 0 25.3043 0 20C0 14.6957 2.10714 9.60859 5.85786 5.85786C9.60859 2.10714 14.6957 0 20 0C25.3043 0 30.3914 2.10714 34.1421 5.85786C37.8929 9.60859 40 14.6957 40 20C40 25.3043 37.8929 30.3914 34.1421 34.1421C30.3914 37.8929 25.3043 40 20 40Z" fill="#F3756C"/>
</svg>
