<svg width="40" height="40" viewBox="0 0 40 40" fill="none" xmlns="http://www.w3.org/2000/svg">
<path d="M21.4783 13H24.9565C26.8776 13 28.4348 14.6118 28.4348 16.6V18.7089C28.4348 19.6636 28.0684 20.5793 27.416 21.2544L26.9416 21.7455C26.8057 21.8861 26.8057 22.1139 26.9416 22.2545L27.416 22.7456C28.0684 23.4207 28.4348 24.3364 28.4348 25.2911V27.4C28.4348 29.3883 26.8776 31 24.9565 31H21.4783C19.5573 31 18 29.3883 18 27.4C18 26.4059 18.7786 25.6 19.7391 25.6H20.6087C21.0889 25.6 21.4783 26.003 21.4783 26.5C21.4783 26.997 21.8675 27.4 22.3478 27.4H23.2174C24.1779 27.4 24.9565 26.5941 24.9565 25.6C24.9565 24.6059 24.1779 23.8 23.2174 23.8C22.2569 23.8 21.4783 22.9941 21.4783 22C21.4783 21.0059 22.2569 20.2 23.2174 20.2C24.1779 20.2 24.9565 19.3941 24.9565 18.4C24.9565 17.4059 24.1779 16.6 23.2174 16.6H22.3478C21.8675 16.6 21.4783 17.0029 21.4783 17.5C21.4783 17.9971 21.0889 18.4 20.6087 18.4H19.7391C18.7786 18.4 18 17.5941 18 16.6C18 14.6118 19.5573 13 21.4783 13Z" fill="#EFDCAC"/>
<path d="M34.7826 0C33.8221 0 33.0434 0.778635 33.0434 1.73913V3.47826H31.3043C30.3438 3.47826 29.5652 4.25691 29.5652 5.21739C29.5652 6.17788 30.3438 6.95652 31.3043 6.95652H33.0434V8.69566C33.0434 9.65614 33.8221 10.4348 34.7826 10.4348C35.7431 10.4348 36.5217 9.65614 36.5217 8.69566V6.95652H38.2608C39.2213 6.95652 40 6.17788 40 5.21739C40 4.25691 39.2213 3.47826 38.2608 3.47826H36.5217V1.73913C36.5217 0.778635 35.7431 0 34.7826 0Z" fill="#EFDCAC"/>
<path d="M37.3336 14.9858C37.0383 14.0719 36.0028 13.6656 35.1193 14.0427C34.236 14.4199 33.8304 15.4423 34.1071 16.3621C34.9791 19.259 34.9955 22.3602 34.1341 25.2863C33.1084 28.7709 30.9016 31.7898 27.8927 33.8248C24.8838 35.8599 21.2604 36.7841 17.6444 36.439C14.0284 36.0938 10.6453 34.5009 8.07566 31.9335C5.50606 29.366 3.91027 25.9841 3.56215 22.3684C3.21403 18.7526 4.13531 15.1284 6.16787 12.1179C8.20042 9.10732 11.2175 6.8981 14.7012 5.86942C17.6266 5.00563 20.7277 5.01947 23.6254 5.88899C24.5454 6.16504 25.5675 5.75853 25.944 4.87486C26.3204 3.99121 25.9132 2.95605 24.999 2.66139C21.3494 1.48503 17.416 1.4287 13.7129 2.52215C9.45171 3.78039 5.76138 6.48259 3.27526 10.165C0.789144 13.8473 -0.337719 18.2802 0.0880843 22.7029C0.513875 27.1255 2.46579 31.262 5.60879 34.4023C8.75178 37.5427 12.8899 39.4912 17.3127 39.9133C21.7357 40.3356 26.1677 39.2049 29.848 36.7159C33.5284 34.2267 36.2275 30.5342 37.4823 26.2719C38.5725 22.5679 38.513 18.6343 37.3336 14.9858Z" fill="#EFDCAC"/>
<path d="M11.2511 17.0918L11.9748 16.7299C12.2061 16.6143 12.4783 16.7825 12.4783 17.0411V28.6522C12.4783 29.6127 13.2569 30.3913 14.2174 30.3913C15.1779 30.3913 15.9565 29.6127 15.9565 28.6522V14.7391C15.9565 13.7786 15.1779 13 14.2174 13H12.8889C12.6188 13 12.3525 13.0629 12.111 13.1836L9.85984 14.3092C9.33289 14.5727 9 15.1113 9 15.7005C9 16.8569 10.2169 17.6089 11.2511 17.0918Z" fill="#EFDCAC"/>
</svg>
