<svg width="40" height="40" viewBox="0 0 40 40" fill="none" xmlns="http://www.w3.org/2000/svg">
<path d="M34.7826 0C33.8221 0 33.0434 0.778635 33.0434 1.73913V3.47826H31.3043C30.3438 3.47826 29.5652 4.25691 29.5652 5.21739C29.5652 6.17788 30.3438 6.95652 31.3043 6.95652H33.0434V8.69566C33.0434 9.65614 33.8221 10.4348 34.7826 10.4348C35.7431 10.4348 36.5217 9.65614 36.5217 8.69566V6.95652H38.2608C39.2213 6.95652 40 6.17788 40 5.21739C40 4.25691 39.2213 3.47826 38.2608 3.47826H36.5217V1.73913C36.5217 0.778635 35.7431 0 34.7826 0Z" fill="#EFDCAC"/>
<path d="M37.3336 14.9858C37.0383 14.0719 36.0028 13.6656 35.1193 14.0427C34.236 14.4199 33.8304 15.4423 34.1071 16.3621C34.9791 19.259 34.9955 22.3602 34.1341 25.2863C33.1084 28.7709 30.9016 31.7898 27.8927 33.8248C24.8838 35.8599 21.2604 36.7841 17.6444 36.439C14.0284 36.0938 10.6453 34.5009 8.07566 31.9335C5.50606 29.366 3.91027 25.9841 3.56215 22.3684C3.21403 18.7526 4.13531 15.1284 6.16787 12.1179C8.20042 9.10732 11.2175 6.8981 14.7012 5.86942C17.6266 5.00563 20.7277 5.01947 23.6254 5.88899C24.5454 6.16504 25.5675 5.75853 25.944 4.87486C26.3204 3.99121 25.9132 2.95605 24.999 2.66139C21.3494 1.48503 17.416 1.4287 13.7129 2.52215C9.45171 3.78039 5.76138 6.48259 3.27526 10.165C0.789144 13.8473 -0.337719 18.2802 0.0880843 22.7029C0.513875 27.1255 2.46579 31.262 5.60879 34.4023C8.75178 37.5427 12.8899 39.4912 17.3127 39.9133C21.7357 40.3356 26.1677 39.2049 29.848 36.7159C33.5284 34.2267 36.2275 30.5342 37.4823 26.2719C38.5725 22.5679 38.513 18.6343 37.3336 14.9858Z" fill="#EFDCAC"/>
<path d="M17.3914 12.1738H20.8696C22.7907 12.1738 24.3479 13.7856 24.3479 15.7738V17.8827C24.3479 18.8374 23.9814 19.7531 23.3291 20.4283L22.8547 20.9193C22.7188 21.0599 22.7188 21.2878 22.8547 21.4283L23.3291 21.9194C23.9814 22.5946 24.3479 23.5102 24.3479 24.4649V26.5738C24.3479 28.5621 22.7907 30.1738 20.8696 30.1738H17.3914C15.4704 30.1738 13.9131 28.5621 13.9131 26.5738C13.9131 25.5797 14.6917 24.7738 15.6522 24.7738H16.5218C17.002 24.7738 17.3914 25.1768 17.3914 25.6738C17.3914 26.1708 17.7806 26.5738 18.2609 26.5738H19.1305C20.091 26.5738 20.8696 25.768 20.8696 24.7738C20.8696 23.7797 20.091 22.9738 19.1305 22.9738C18.17 22.9738 17.3914 22.168 17.3914 21.1738C17.3914 20.1797 18.17 19.3738 19.1305 19.3738C20.091 19.3738 20.8696 18.568 20.8696 17.5738C20.8696 16.5797 20.091 15.7738 19.1305 15.7738H18.2609C17.7806 15.7738 17.3914 16.1768 17.3914 16.6738C17.3914 17.1709 17.002 17.5738 16.5218 17.5738H15.6522C14.6917 17.5738 13.9131 16.7679 13.9131 15.7738C13.9131 13.7856 15.4704 12.1738 17.3914 12.1738Z" fill="#EFDCAC"/>
</svg>
