<svg width="40" height="40" viewBox="0 0 40 40" fill="none" xmlns="http://www.w3.org/2000/svg">
	<g clip-path="url(#clip0_780_932)">
		<path d="M38.4674 6.23124H27.6566V2.82727C27.6566 1.247 26.0719 0 24.1278 0H15.8738C13.9281 0 12.3464 1.247 12.3464 2.82727V6.23124H1.53563C0.687961 6.23124 0 6.79045 0 7.47948C0 8.16851 0.687961 8.72773 1.53563 8.72773H3.64711L7.20977 37.5896C7.35872 38.9402 8.77457 40 10.4315 40H29.5685C31.2254 40 32.6397 38.9402 32.7872 37.6021L36.3529 8.72648H38.4644C39.312 8.72648 40 8.16727 40 7.47823C40 6.7892 39.312 6.22999 38.4644 6.22999L38.4674 6.23124ZM15.4177 2.82727C15.4177 2.62381 15.6219 2.45655 15.8738 2.45655H24.1262C24.3781 2.45655 24.5838 2.62256 24.5838 2.82727V6.23124H15.4162L15.4177 2.82727ZM29.7328 37.3662C29.7251 37.4349 29.6253 37.5035 29.5716 37.5035H10.433C10.3793 37.5035 10.2779 37.4349 10.2687 37.3537L6.73526 8.72773H33.2693L29.7328 37.3662Z" fill="white"/>
	</g>
	<defs>
		<clipPath id="clip0_780_932">
			<rect width="40" height="40" fill="white"/>
		</clipPath>
	</defs>
</svg>
