<svg width="40" height="40" viewBox="0 0 40 40" fill="none" xmlns="http://www.w3.org/2000/svg">
<path d="M14.1667 16.6H15.4328C16.1142 16.6 16.6667 17.1966 16.6667 17.9326C16.6667 18.2352 16.5713 18.5287 16.3963 18.765L10.3652 26.907C10.1288 27.2261 10 27.6227 10 28.0314V29.2C10 30.1941 10.7462 31 11.6667 31H18.3333C19.2538 31 20 30.1941 20 29.2C20 28.2059 19.2538 27.4 18.3333 27.4H14.8482C14.5708 27.4 14.4148 27.0555 14.585 26.819L19.2978 20.2751C19.7528 19.6431 20 18.8653 20 18.0648V16.6C20 14.6118 18.5077 13 16.6667 13H13.3333C11.4924 13 10 14.6118 10 16.6C10 17.5941 10.7462 18.4 11.6667 18.4H12.5C12.9602 18.4 13.3333 17.9971 13.3333 17.5C13.3333 17.0029 13.7063 16.6 14.1667 16.6Z" fill="#EFDCAC"/>
<path d="M34.7826 0C33.8221 0 33.0434 0.778635 33.0434 1.73913V3.47826H31.3043C30.3438 3.47826 29.5652 4.25691 29.5652 5.21739C29.5652 6.17788 30.3438 6.95652 31.3043 6.95652H33.0434V8.69566C33.0434 9.65614 33.8221 10.4348 34.7826 10.4348C35.7431 10.4348 36.5217 9.65614 36.5217 8.69566V6.95652H38.2608C39.2213 6.95652 40 6.17788 40 5.21739C40 4.25691 39.2213 3.47826 38.2608 3.47826H36.5217V1.73913C36.5217 0.778635 35.7431 0 34.7826 0Z" fill="#EFDCAC"/>
<path d="M37.3336 14.9859C37.0383 14.072 36.0028 13.6657 35.1193 14.0429C34.236 14.42 33.8304 15.4425 34.1071 16.3622C34.9791 19.2591 34.9955 22.3604 34.1341 25.2865C33.1084 28.771 30.9016 31.7899 27.8927 33.8249C24.8838 35.86 21.2604 36.7842 17.6444 36.4392C14.0284 36.0939 10.6453 34.5011 8.07566 31.9336C5.50606 29.3661 3.91027 25.9842 3.56215 22.3685C3.21403 18.7527 4.13531 15.1286 6.16787 12.118C8.20042 9.10744 11.2175 6.89822 14.7012 5.86954C17.6266 5.00575 20.7277 5.0196 23.6254 5.88911C24.5454 6.16516 25.5675 5.75866 25.944 4.87499C26.3204 3.99133 25.9132 2.95617 24.999 2.66151C21.3494 1.48515 17.416 1.42883 13.7129 2.52227C9.45171 3.78052 5.76138 6.48271 3.27526 10.1651C0.789144 13.8474 -0.337719 18.2804 0.0880843 22.703C0.513875 27.1256 2.46579 31.2621 5.60879 34.4025C8.75178 37.5428 12.8899 39.4913 17.3127 39.9134C21.7357 40.3357 26.1677 39.2051 29.848 36.716C33.5284 34.2268 36.2275 30.5343 37.4823 26.272C38.5725 22.568 38.513 18.6345 37.3336 14.9859Z" fill="#EFDCAC"/>
<path d="M23.2511 17.0918L23.9748 16.7299C24.2061 16.6143 24.4783 16.7825 24.4783 17.0411V28.6522C24.4783 29.6127 25.2569 30.3913 26.2174 30.3913C27.1779 30.3913 27.9565 29.6127 27.9565 28.6522V14.7391C27.9565 13.7786 27.1779 13 26.2174 13H24.8889C24.6188 13 24.3525 13.0629 24.111 13.1836L21.8598 14.3092C21.3329 14.5727 21 15.1113 21 15.7005C21 16.8569 22.2169 17.6089 23.2511 17.0918Z" fill="#EFDCAC"/>
</svg>
