<svg width="40" height="40" viewBox="0 0 40 40" fill="none" xmlns="http://www.w3.org/2000/svg">
<path d="M11.1667 15.6H12.4328C13.1142 15.6 13.6667 16.1966 13.6667 16.9326C13.6667 17.2352 13.5713 17.5287 13.3963 17.765L7.36522 25.907C7.1288 26.2261 7 26.6227 7 27.0314V28.2C7 29.1941 7.74618 30 8.66666 30H15.3333C16.2538 30 17 29.1941 17 28.2C17 27.2059 16.2538 26.4 15.3333 26.4H11.8482C11.5708 26.4 11.4148 26.0555 11.585 25.819L16.2978 19.2751C16.7528 18.6431 17 17.8653 17 17.0648V15.6C17 13.6118 15.5077 12 13.6667 12H10.3333C8.49238 12 7 13.6118 7 15.6C7 16.5941 7.74618 17.4 8.66666 17.4H9.50001C9.96018 17.4 10.3333 16.9971 10.3333 16.5C10.3333 16.0029 10.7063 15.6 11.1667 15.6Z" fill="#EFDCAC"/>
<path d="M23.4783 12H26.9565C28.8776 12 30.4348 13.6118 30.4348 15.6V17.7089C30.4348 18.6636 30.0684 19.5793 29.416 20.2544L28.9416 20.7455C28.8057 20.8861 28.8057 21.1139 28.9416 21.2545L29.416 21.7456C30.0684 22.4207 30.4348 23.3364 30.4348 24.2911V26.4C30.4348 28.3883 28.8776 30 26.9565 30H23.4783C21.5573 30 20 28.3883 20 26.4C20 25.4059 20.7786 24.6 21.7391 24.6H22.6087C23.0889 24.6 23.4783 25.003 23.4783 25.5C23.4783 25.997 23.8675 26.4 24.3478 26.4H25.2174C26.1779 26.4 26.9565 25.5941 26.9565 24.6C26.9565 23.6059 26.1779 22.8 25.2174 22.8C24.2569 22.8 23.4783 21.9941 23.4783 21C23.4783 20.0059 24.2569 19.2 25.2174 19.2C26.1779 19.2 26.9565 18.3941 26.9565 17.4C26.9565 16.4059 26.1779 15.6 25.2174 15.6H24.3478C23.8675 15.6 23.4783 16.0029 23.4783 16.5C23.4783 16.9971 23.0889 17.4 22.6087 17.4H21.7391C20.7786 17.4 20 16.5941 20 15.6C20 13.6118 21.5573 12 23.4783 12Z" fill="#EFDCAC"/>
<path d="M34.7826 0C33.8221 0 33.0434 0.778635 33.0434 1.73913V3.47826H31.3043C30.3438 3.47826 29.5652 4.25691 29.5652 5.21739C29.5652 6.17788 30.3438 6.95652 31.3043 6.95652H33.0434V8.69566C33.0434 9.65614 33.8221 10.4348 34.7826 10.4348C35.7431 10.4348 36.5217 9.65614 36.5217 8.69566V6.95652H38.2608C39.2213 6.95652 40 6.17788 40 5.21739C40 4.25691 39.2213 3.47826 38.2608 3.47826H36.5217V1.73913C36.5217 0.778635 35.7431 0 34.7826 0Z" fill="#EFDCAC"/>
<path d="M37.3336 14.9859C37.0383 14.072 36.0028 13.6657 35.1193 14.0429C34.236 14.42 33.8304 15.4425 34.1071 16.3622C34.9791 19.2591 34.9955 22.3604 34.1341 25.2865C33.1084 28.771 30.9016 31.7899 27.8927 33.8249C24.8838 35.86 21.2604 36.7842 17.6444 36.4392C14.0284 36.0939 10.6453 34.5011 8.07566 31.9336C5.50606 29.3661 3.91027 25.9842 3.56215 22.3685C3.21403 18.7527 4.13531 15.1286 6.16787 12.118C8.20042 9.10744 11.2175 6.89822 14.7012 5.86954C17.6266 5.00575 20.7277 5.0196 23.6254 5.88911C24.5454 6.16516 25.5675 5.75866 25.944 4.87499C26.3204 3.99133 25.9132 2.95617 24.999 2.66151C21.3494 1.48515 17.416 1.42883 13.7129 2.52227C9.45171 3.78052 5.76138 6.48271 3.27526 10.1651C0.789144 13.8474 -0.337719 18.2804 0.0880843 22.703C0.513875 27.1256 2.46579 31.2621 5.60879 34.4025C8.75178 37.5428 12.8899 39.4913 17.3127 39.9134C21.7357 40.3357 26.1677 39.2051 29.848 36.716C33.5284 34.2268 36.2275 30.5343 37.4823 26.272C38.5725 22.568 38.513 18.6345 37.3336 14.9859Z" fill="#EFDCAC"/>
</svg>
