<svg width="40" height="40" viewBox="0 0 40 40" fill="none" xmlns="http://www.w3.org/2000/svg">
<path d="M12.1667 14.6H13.4328C14.1142 14.6 14.6667 15.1966 14.6667 15.9326C14.6667 16.2352 14.5713 16.5287 14.3963 16.765L8.36522 24.907C8.1288 25.2261 8 25.6227 8 26.0314V27.2C8 28.1941 8.74618 29 9.66666 29H16.3333C17.2538 29 18 28.1941 18 27.2C18 26.2059 17.2538 25.4 16.3333 25.4H12.8482C12.5708 25.4 12.4148 25.0555 12.585 24.819L17.2978 18.2751C17.7528 17.6431 18 16.8653 18 16.0648V14.6C18 12.6118 16.5077 11 14.6667 11H11.3333C9.49238 11 8 12.6118 8 14.6C8 15.5941 8.74618 16.4 9.66666 16.4H10.5C10.9602 16.4 11.3333 15.9971 11.3333 15.5C11.3333 15.0029 11.7063 14.6 12.1667 14.6Z" fill="#EFDCAC"/>
<path d="M34.7826 0C33.8221 0 33.0434 0.778635 33.0434 1.73913V3.47826H31.3043C30.3438 3.47826 29.5652 4.25691 29.5652 5.21739C29.5652 6.17788 30.3438 6.95652 31.3043 6.95652H33.0434V8.69566C33.0434 9.65614 33.8221 10.4348 34.7826 10.4348C35.7431 10.4348 36.5217 9.65614 36.5217 8.69566V6.95652H38.2608C39.2213 6.95652 40 6.17788 40 5.21739C40 4.25691 39.2213 3.47826 38.2608 3.47826H36.5217V1.73913C36.5217 0.778635 35.7431 0 34.7826 0Z" fill="#EFDCAC"/>
<path d="M37.3336 14.9861C37.0383 14.0721 36.0028 13.6658 35.1193 14.043C34.236 14.4201 33.8304 15.4426 34.1071 16.3623C34.9791 19.2593 34.9955 22.3605 34.1341 25.2866C33.1084 28.7711 30.9016 31.7901 27.8927 33.825C24.8838 35.8601 21.2604 36.7843 17.6444 36.4393C14.0284 36.0941 10.6453 34.5012 8.07566 31.9337C5.50606 29.3662 3.91027 25.9843 3.56215 22.3687C3.21403 18.7528 4.13531 15.1287 6.16787 12.1181C8.20042 9.10756 11.2175 6.89834 14.7012 5.86967C17.6266 5.00587 20.7277 5.01972 23.6254 5.88923C24.5454 6.16528 25.5675 5.75878 25.944 4.87511C26.3204 3.99146 25.9132 2.95629 24.999 2.66163C21.3494 1.48528 17.416 1.42895 13.7129 2.5224C9.45171 3.78064 5.76138 6.48283 3.27526 10.1652C0.789144 13.8476 -0.337719 18.2805 0.0880843 22.7031C0.513875 27.1257 2.46579 31.2622 5.60879 34.4026C8.75178 37.5429 12.8899 39.4915 17.3127 39.9135C21.7357 40.3358 26.1677 39.2052 29.848 36.7161C33.5284 34.2269 36.2275 30.5344 37.4823 26.2721C38.5725 22.5681 38.513 18.6346 37.3336 14.9861Z" fill="#EFDCAC"/>
<path d="M20.6667 14.6H25.157C25.3973 14.6 25.5587 14.8665 25.4623 15.1043L21.0002 26.1195C20.4498 27.4781 21.3715 29 22.7445 29C23.5062 29 24.1945 28.5099 24.4945 27.7537L28.3262 18.0979C28.7708 16.9776 29 15.7715 29 14.5527V12.8C29 11.8059 28.2538 11 27.3333 11H20.6667C19.7462 11 19 11.8059 19 12.8C19 13.7941 19.7462 14.6 20.6667 14.6Z" fill="#EFDCAC"/>
</svg>
