<svg width="40" height="40" viewBox="0 0 40 40" fill="none" xmlns="http://www.w3.org/2000/svg">
<path d="M14.1667 14.6H15.4328C16.1142 14.6 16.6667 15.1966 16.6667 15.9326C16.6667 16.2352 16.5713 16.5287 16.3963 16.765L10.3652 24.907C10.1288 25.2261 10 25.6227 10 26.0314V27.2C10 28.1941 10.7462 29 11.6667 29H18.3333C19.2538 29 20 28.1941 20 27.2C20 26.2059 19.2538 25.4 18.3333 25.4H14.8482C14.5708 25.4 14.4148 25.0555 14.585 24.819L19.2978 18.2751C19.7528 17.6431 20 16.8653 20 16.0648V14.6C20 12.6118 18.5077 11 16.6667 11H13.3333C11.4924 11 10 12.6118 10 14.6C10 15.5941 10.7462 16.4 11.6667 16.4H12.5C12.9602 16.4 13.3333 15.9971 13.3333 15.5C13.3333 15.0029 13.7063 14.6 14.1667 14.6Z" fill="#EFDCAC"/>
<path d="M34.7826 0C33.8221 0 33.0434 0.778635 33.0434 1.73913V3.47826H31.3043C30.3438 3.47826 29.5652 4.25691 29.5652 5.21739C29.5652 6.17788 30.3438 6.95652 31.3043 6.95652H33.0434V8.69566C33.0434 9.65614 33.8221 10.4348 34.7826 10.4348C35.7431 10.4348 36.5217 9.65614 36.5217 8.69566V6.95652H38.2608C39.2213 6.95652 40 6.17788 40 5.21739C40 4.25691 39.2213 3.47826 38.2608 3.47826H36.5217V1.73913C36.5217 0.778635 35.7431 0 34.7826 0Z" fill="#EFDCAC"/>
<path d="M37.3336 14.9859C37.0383 14.072 36.0028 13.6657 35.1193 14.0429C34.236 14.42 33.8304 15.4425 34.1071 16.3622C34.9791 19.2591 34.9955 22.3604 34.1341 25.2865C33.1084 28.771 30.9016 31.7899 27.8927 33.8249C24.8838 35.86 21.2604 36.7842 17.6444 36.4392C14.0284 36.0939 10.6453 34.5011 8.07566 31.9336C5.50606 29.3661 3.91027 25.9842 3.56215 22.3685C3.21403 18.7527 4.13531 15.1286 6.16787 12.118C8.20042 9.10744 11.2175 6.89822 14.7012 5.86954C17.6266 5.00575 20.7277 5.0196 23.6254 5.88911C24.5454 6.16516 25.5675 5.75866 25.944 4.87499C26.3204 3.99133 25.9132 2.95617 24.999 2.66151C21.3494 1.48515 17.416 1.42883 13.7129 2.52227C9.45171 3.78052 5.76138 6.48271 3.27526 10.1651C0.789144 13.8474 -0.337719 18.2804 0.0880843 22.703C0.513875 27.1256 2.46579 31.2621 5.60879 34.4025C8.75178 37.5428 12.8899 39.4913 17.3127 39.9134C21.7357 40.3357 26.1677 39.2051 29.848 36.716C33.5284 34.2268 36.2275 30.5343 37.4823 26.272C38.5725 22.568 38.513 18.6345 37.3336 14.9859Z" fill="#EFDCAC"/>
<path fill-rule="evenodd" clip-rule="evenodd" d="M28.3333 25.4V27.2C28.3333 28.1941 27.5872 29 26.6667 29C25.7462 29 25 28.1941 25 27.2V25.4H21.6667C20.7462 25.4 20 24.5941 20 23.6V22.225C20 21.9454 20.0602 21.6699 20.1759 21.42L24.5393 11.995C24.8217 11.3852 25.3988 11 26.03 11H26.6667C27.5872 11 28.3333 11.8059 28.3333 12.8V21.8C29.2538 21.8 30 22.6059 30 23.6C30 24.5941 29.2538 25.4 28.3333 25.4ZM25 18.2L23.3333 21.8H25V18.2Z" fill="#EFDCAC"/>
</svg>
