<svg width="40" height="40" viewBox="0 0 40 40" fill="none" xmlns="http://www.w3.org/2000/svg">
<path d="M39.5987 7.27565L32.9847 0.416217C32.4496 -0.138739 31.5822 -0.138739 31.0471 0.416217C30.512 0.971172 30.512 1.87081 31.0471 2.42577L31.1568 2.53951L26.6342 7.23017L23.4531 3.931C22.918 3.37605 22.0505 3.37605 21.5154 3.931C20.9803 4.48596 20.9803 5.38574 21.5154 5.94056L22.8453 7.31978L4.68902 26.1502C4.43203 26.4166 4.28772 26.778 4.28772 27.155C4.28772 27.5318 4.4321 27.8933 4.68902 28.1597L5.62281 29.1282L4.92948 29.8474C4.39451 30.4023 4.39451 31.302 4.92948 31.8569L5.89909 32.8624L0.200664 38.7724C0.00510846 38.9752 -0.0536496 39.2799 0.051579 39.5452C0.156808 39.8103 0.405369 39.9839 0.681774 39.9854L3.55883 40C3.55988 40 3.56105 40 3.56223 40C3.74386 40 3.91811 39.9252 4.04661 39.792L8.31372 35.3666L9.28359 36.3724C9.54059 36.6389 9.88908 36.7886 10.2525 36.7886C10.6159 36.7886 10.9644 36.6387 11.2214 36.3723L11.9146 35.6531L12.8484 36.6215C13.1158 36.8989 13.4666 37.0377 13.8172 37.0377C14.1678 37.0377 14.5185 36.899 14.786 36.6215L32.9421 17.7915L34.2722 19.171C34.5398 19.4485 34.8904 19.5872 35.2411 19.5872C35.5917 19.5872 35.9424 19.4485 36.21 19.171C36.7451 18.6161 36.7451 17.7164 36.21 17.1615L33.0288 13.8622L37.5516 9.1718L37.6612 9.28547C37.9288 9.56299 38.2793 9.70167 38.63 9.70167C38.9806 9.70167 39.3313 9.56292 39.5988 9.28547C40.1337 8.73025 40.1337 7.83061 39.5987 7.27565ZM13.8171 33.6071L7.59549 27.155L10.6805 23.9555L12.8265 26.1809C13.0939 26.4583 13.4446 26.5971 13.7953 26.5971C14.146 26.5971 14.4966 26.4583 14.7641 26.1808C15.2992 25.6259 15.2992 24.7262 14.7641 24.1713L12.6182 21.9459L15.5246 18.9315L17.6702 21.1567C17.9376 21.4341 18.2884 21.5729 18.639 21.5729C18.9896 21.5729 19.3403 21.4342 19.6078 21.1567C20.1429 20.6018 20.1429 19.7021 19.6078 19.1472L17.4622 16.9219L20.3686 13.9075L22.5144 16.1331C22.7819 16.4105 23.1327 16.5493 23.4832 16.5493C23.8338 16.5493 24.1846 16.4106 24.4521 16.1331C24.9872 15.5782 24.9872 14.6785 24.4521 14.1236L22.3061 11.898L24.7826 9.3296L28.744 13.4382L30.1217 14.867C30.1221 14.8675 30.1227 14.8679 30.1232 14.8684L31.0042 15.7821L13.8171 33.6071Z" fill="#CFA63E"/>
</svg>
