<svg width="456" height="456" viewBox="0 0 456 456" fill="none" xmlns="http://www.w3.org/2000/svg">
	<g clip-path="url(#clip0_747_352)">
		<path d="M456 0H0V456H456V0Z" fill="url(#paint0_linear_747_352)"/>
		<path d="M351.354 316.851C353.852 317.494 356.56 318.81 356.512 315.469C356.505 314.97 356.581 314.158 355.905 314.12C354.009 314.015 354.031 319.03 354.455 320.189C356.153 324.824 357.167 317.632 357.287 316.109C357.445 314.12 357.26 311.076 355.602 309.636C354.744 308.892 353.859 309.582 353.41 310.411C351.317 314.279 352.032 319.821 355.366 322.852C355.952 323.385 356.256 321.46 356.276 321.369C356.917 318.393 356.988 315.196 356.074 312.266C356.059 312.22 354.797 308.87 354.388 309.838C353.191 312.672 353.49 316.625 353.478 319.615C353.469 321.602 353.194 324.243 354.084 326.122C354.794 327.62 355.987 322.1 356.023 321.925C356.581 319.207 356.758 316.446 357.102 313.699C357.441 310.983 357.14 319.172 357.102 321.908C357.061 324.788 356.815 327.659 356.815 330.539C356.815 330.698 356.852 331.167 356.883 331.011C357.128 329.782 357.186 328.477 357.254 327.235C357.523 322.316 357.595 317.308 357.119 312.401C356.913 310.286 356.593 308.622 356.529 311.912C356.43 317.004 356.129 322.065 355.939 327.151C355.921 327.631 356.17 332.718 356.276 332.595C357.912 330.708 357.614 326.023 357.658 323.796C357.738 319.73 357.402 315.503 355.972 311.659C355.236 309.677 355.067 317.162 355.062 317.357C354.934 322.31 354.995 327.27 354.995 332.225C354.995 332.653 355.077 335.366 355.13 335.191C356.236 331.527 355.687 326.856 355.399 323.122C355.141 319.774 354.622 316.459 354.388 313.109C354.132 309.444 353.82 320.433 353.596 324.099C353.434 326.746 352.608 329.617 352.888 332.275C353.203 335.276 353.459 326.257 353.427 323.24C353.373 318.114 353.089 312.704 350.831 308.001C349.736 305.719 349.885 313.835 349.887 313.985C349.94 318.771 350.221 323.691 351.337 328.364C351.589 329.419 351.946 331.692 352.112 329.14C352.462 323.756 351.795 318.372 350.443 313.159C349.988 311.402 349.455 309.623 348.825 307.917C348.539 307.141 348.484 309.552 348.522 310.378C348.588 311.843 350.272 331.873 351.893 331.584C353.144 331.361 353.262 324.127 353.275 323.324C353.346 319.137 352.486 315.013 351.185 311.052C350.827 309.963 350.558 313.278 350.511 314.423C350.312 319.241 350.052 324.023 349.533 328.819C349.436 329.714 349.124 332.279 349.6 331.517C349.916 331.012 349.932 329.842 349.971 329.359C350.225 326.241 350.103 323.075 349.752 319.969C349.333 316.262 348.567 312.543 347.712 308.911C347.565 308.285 347.448 310.174 347.409 310.816C347.234 313.72 347.139 316.639 347.139 319.548C347.139 321.294 347.251 323.031 347.342 324.774C347.375 325.426 347.21 326.974 347.561 327.606C348.03 328.451 347.707 325.671 347.645 324.706C347.48 322.153 346.941 319.764 346.128 317.34C345.402 315.177 344.535 313.053 343.734 310.917C343.594 310.545 343.114 309.568 343.026 309.956C342.276 313.277 343.233 317.513 343.785 320.795C344.156 323.005 344.505 325.964 345.588 327.977C346.487 329.645 346.649 325.789 346.667 325.482C346.924 321.097 345.567 316.644 343.195 312.974C341.884 310.945 341.157 311.253 341.172 313.648C341.195 317.274 342.265 320.988 343.397 324.403C343.884 325.87 344.544 328.333 345.824 329.393C346.616 330.048 347.203 324.814 347.207 324.639C347.286 320.974 346.52 316.826 344.813 313.547C344.311 312.582 343.782 313.06 343.464 313.918C342.317 317.024 342.379 320.974 342.74 324.217C342.862 325.324 343.095 328.19 344.644 328.449C345.726 328.629 345.962 324.144 345.993 323.678C346.251 319.766 345.528 316.103 343.7 312.637C342.924 311.163 342.231 311.223 341.846 312.974C341.211 315.862 341.327 321.35 344.038 323.307C346.207 324.874 345.644 316.736 345.538 316.16C345.347 315.123 344.931 312.381 343.7 311.878C342.377 311.337 340.39 311.724 339.115 312.181C339.031 312.212 336.416 313.749 337.362 313.749C338.597 313.749 339.919 313.089 341.155 312.906C342.396 312.722 341.784 312.86 340.986 313.564C339.496 314.879 337.895 315.982 335.997 316.632C333.431 317.509 336.394 311.672 337.328 311.827C337.689 311.888 336.858 312.391 336.587 312.637C336.032 313.138 335.469 313.633 334.901 314.12C334.322 314.616 332.618 316.112 333.283 315.738C334.076 315.292 336.435 312.128 333.991 313.513C333.128 314.002 332.461 314.538 331.698 315.131C331.128 315.575 332.295 313.808 332.474 313.109C332.75 312.03 330.664 314.27 330.434 314.845C330.281 315.227 330.94 314.192 331.142 313.833C331.491 313.213 331.325 313.41 331.007 313.833C330.608 314.366 330.417 314.801 330.417 315.469C330.417 316.084 331.896 315.035 332.204 314.929C335.145 313.918 332.964 317.617 331.934 318.486C330.833 319.415 330.165 319.597 331.934 318.604C334.426 317.205 337.076 316.099 339.924 315.705C341.351 315.507 340.104 316.559 339.621 316.986C338.216 318.227 336.76 319.247 334.867 319.514C334.469 319.57 333.195 319.857 333.822 319.143C334.914 317.901 337.032 317.934 338.542 317.829C338.759 317.813 342.342 317.61 340.936 318.132C338.744 318.946 336.266 319.431 333.957 319.75C333.736 319.781 330.796 319.885 332.44 319.885C335.467 319.885 338.462 320.013 341.475 320.323C342.824 320.462 344.031 320.523 342.015 321.099C340.198 321.618 338.397 321.706 336.519 321.706C336.339 321.706 333.438 321.757 334.817 321.554C336.38 321.324 338.326 321.17 339.874 321.571C341.654 322.032 335.585 322.626 335.575 322.633C335.098 322.951 336.696 322.887 337.261 322.987C338.876 323.273 340.494 323.549 342.116 323.796C343.076 323.942 346.885 324.403 343.7 324.437C341.183 324.463 333.631 324.437 336.148 324.437C337.742 324.437 339.342 324.439 340.902 324.807C341.01 324.833 343.634 325.623 343.397 325.886C342.834 326.512 338.294 326.662 337.733 326.021C337.685 325.967 344.192 326.288 343.279 326.999C342.353 327.719 338.455 327.412 337.278 327.151C335.834 326.83 340.443 326.558 341.711 327.319C342.465 327.771 340.95 327.337 340.835 327.285C339.693 326.773 338.656 326.408 337.446 326.105C336.381 325.839 339.735 326.257 340.43 326.257" stroke="#344F61" stroke-width="3" stroke-linecap="round"/>
		<path d="M348.102 329.367C348.032 329.453 347.901 329.688 347.767 329.642C347.746 329.635 347.442 329.554 347.474 329.582C347.622 329.715 348.02 329.26 347.86 329.529C347.807 329.62 347.701 329.982 347.573 329.916C347.356 329.803 347.218 329.645 346.967 329.577C346.265 329.386 345.497 329.418 344.777 329.438C344.374 329.448 343.979 329.48 343.587 329.575C343.523 329.591 343.46 329.62 343.393 329.621C343.081 329.628 343.142 329.331 342.936 329.178C342.89 329.144 342.737 329.031 342.673 329.058C342.57 329.102 342.726 329.381 342.751 329.432C342.809 329.554 342.901 329.688 342.922 329.824C342.942 329.958 342.508 329.641 342.497 329.632C342.03 329.255 341.61 328.805 341 328.7C340.942 328.69 340.763 328.623 340.763 328.732C340.763 328.846 340.838 328.97 340.873 329.077C340.919 329.224 340.76 329.11 340.707 329.076C340.542 328.971 340.381 328.847 340.211 328.753C340.081 328.68 339.951 328.665 339.81 328.629C339.698 328.6 339.587 328.609 339.475 328.58C339.358 328.55 339.393 328.486 339.318 328.428C339.282 328.4 339.167 328.344 339.177 328.303C339.194 328.224 339.273 328.19 339.334 328.16" stroke="#344F61" stroke-width="3" stroke-linecap="round"/>
		<path d="M338.19 328.16C338.265 328.16 338.476 328.191 338.508 328.128" stroke="#344F61" stroke-width="3" stroke-linecap="round"/>
		<path d="M333.086 313.849C333.227 313.849 333.345 313.9 333.125 313.9C332.943 313.9 332.729 313.93 332.554 313.871C332.274 313.778 332.078 313.465 331.966 313.213C331.833 312.914 331.731 312.923 331.406 312.933C331.159 312.94 331.213 313.289 331.457 313.289" stroke="#344F61" stroke-width="3" stroke-linecap="round"/>
		<path d="M132.212 301.452C132.311 301.055 132.599 300.7 132.721 300.295C133.149 298.87 133.601 297.36 133.763 295.877C133.773 295.784 133.751 295.551 133.678 295.61C133.522 295.738 133.04 296.991 133.018 297.046C132.658 297.931 132.184 298.841 131.963 299.774C131.833 300.324 132.169 299.945 132.278 299.683C132.872 298.263 133.013 296.557 133.121 295.04C133.177 294.255 133.198 293.464 133.194 292.677C133.193 292.493 133.134 291.994 133.036 292.149C132.081 293.655 131.118 295.036 129.981 296.422C129.922 296.494 128.807 298.006 128.963 297.919C129.84 297.432 130.102 295.23 130.278 294.404C130.594 292.928 130.696 291.428 130.787 289.925C130.798 289.755 130.675 290.247 130.624 290.41C130.298 291.454 129.941 292.491 129.569 293.519C128.849 295.509 127.791 297.421 127.187 299.446C126.89 300.444 128.135 298.611 128.139 298.604C129.369 296.253 129.577 293.548 130.006 290.973C130.04 290.768 130.088 290.218 130.224 289.986C130.383 289.713 130.112 290.607 130.036 290.913C129.44 293.296 128.503 295.516 127.472 297.737C127.328 298.048 127.089 298.54 126.981 298.901C126.883 299.23 127.007 299.248 127.206 299.004C128.623 297.263 129.621 295.318 131.266 293.731C132.985 292.073 135.07 290.691 137.4 290.07C137.905 289.936 137.852 290.129 137.679 290.549C137.196 291.719 136.584 292.859 135.969 293.961C134.364 296.844 132.461 299.485 130.454 302.095C130.348 302.233 130.243 302.373 130.139 302.513C130.004 302.696 130.007 302.726 130.157 302.458C130.586 301.698 130.982 300.916 131.363 300.131C132.642 297.497 133.583 294.504 135.351 292.143C135.39 292.091 137.35 290.143 137.533 290.592C137.613 290.789 137.25 291.582 137.224 291.652C136.818 292.735 136.347 293.791 135.824 294.822C134.92 296.604 133.923 298.376 132.733 299.986C132.412 300.419 132.409 300.55 132.636 299.986C133.359 298.184 133.964 296.359 134.503 294.495C134.861 293.253 135.999 289.583 135.885 290.87C135.841 291.36 135.332 292.098 135.127 292.477C134.408 293.804 133.644 295.107 132.842 296.386C131.267 298.898 129.425 301.234 127.884 303.768C127.8 303.906 126.545 306.295 127.339 305.198C128.623 303.423 129.555 301.381 130.551 299.44C131.129 298.315 131.693 297.171 132.491 296.18C132.594 296.05 133.3 295.156 133.6 295.174C134.009 295.198 133.311 295.944 133.109 296.301C132.514 297.35 131.876 298.378 131.26 299.416C130.036 301.48 128.655 303.37 127.26 305.313C127.083 305.56 126.446 306.645 127.218 305.943C128.92 304.395 130.235 302.464 131.854 300.834C132.057 300.63 134.471 298.27 135 298.931C135.464 299.511 133.056 301.71 132.812 301.949C131.336 303.395 129.635 304.65 127.648 305.283C127.067 305.468 126.309 305.652 127.054 304.907C128.29 303.671 130.214 303.185 131.878 302.901C134.319 302.484 136.867 302.406 139.339 302.337C139.764 302.325 140.231 302.297 140.66 302.325C140.921 302.343 140.139 302.365 139.879 302.38C137.893 302.493 135.872 302.552 133.891 302.355C132.951 302.263 132.007 302.118 131.084 301.913C130.836 301.858 130.14 301.725 130.375 301.628C130.889 301.418 132.121 301.562 132.575 301.562C134.566 301.562 136.555 301.588 138.545 301.616C141.263 301.655 144.14 301.931 146.848 301.61C147.292 301.557 146.882 301.432 146.709 301.38C145.858 301.125 144.97 300.987 144.097 300.84C141.537 300.409 138.99 299.925 136.436 299.458C135.16 299.225 136.37 299.336 136.872 299.386C139.295 299.626 141.743 299.67 144.176 299.701C144.446 299.704 144.717 299.707 144.988 299.707C145.226 299.707 145.659 299.917 145.703 299.683C145.718 299.605 145.556 299.622 145.479 299.604C144.85 299.456 143.555 299.235 143.06 299.149C140.641 298.73 138.224 298.459 135.794 298.137C134.157 297.921 139.094 298.248 140.745 298.277C140.98 298.281 145.404 298.251 145.297 298.004C145.156 297.679 144.156 297.571 143.933 297.525C142.926 297.319 141.907 297.168 140.897 296.974C139.986 296.799 139.08 296.602 138.176 296.398C137.97 296.351 137.36 296.236 137.569 296.222C139.059 296.123 140.574 296.234 142.066 296.21C142.088 296.21 143.934 296.113 143.745 295.943C143.348 295.585 142.293 295.539 141.812 295.44C140.733 295.218 139.437 295.061 138.448 294.543C137.884 294.248 139.723 294.597 140.351 294.701C141.199 294.841 142.061 295.008 142.891 295.234C143.365 295.363 141.979 294.871 141.945 294.858C140.615 294.373 139.206 293.998 137.933 293.367C137.872 293.337 137.779 293.319 137.763 293.252C137.717 293.051 138.176 293.221 138.382 293.24C139.214 293.316 140.04 293.45 140.866 293.573C141.84 293.719 142.908 294.034 143.897 294.034C144.329 294.034 143.081 293.746 142.685 293.573C142.206 293.366 141.557 293.044 141.23 292.616C141.165 292.531 141.08 292.189 141.266 292.18C141.762 292.153 142.286 292.788 142.66 293.052C142.981 293.278 143.076 293.287 142.927 292.858C142.623 291.981 143.781 292.533 143.97 293.077C144.365 294.219 140.137 293.702 139.642 293.483C139.396 293.373 139.024 293.203 138.927 292.925C138.898 292.841 138.803 292.183 138.751 292.337C138.393 293.413 137.484 294.51 137.357 295.646C137.22 296.882 138.316 293.34 138.969 292.283C139.214 291.888 139.633 291.588 139.442 292.277C139.208 293.122 138.723 293.852 138.291 294.604C138.272 294.636 137.79 295.444 138.03 295.07C138.591 294.199 139.005 293.238 139.339 292.258C139.512 291.75 139.879 290.19 139.83 290.725C139.722 291.917 139.025 293.059 138.424 294.052C137.349 295.829 136.222 297.566 135.23 299.392C134.552 300.641 133.943 301.943 132.891 302.931C132.818 302.999 131.594 304.003 131.46 303.78C131.279 303.478 133.762 302.965 133.824 302.955C134.364 302.869 140.612 302.194 140.612 302.652C140.612 303.208 135.169 303.086 134.757 303.089C133.992 303.093 133.223 303.083 132.46 303.149C132.246 303.168 131.656 303.19 131.836 303.307C132.061 303.454 132.625 303.406 132.854 303.416C133.476 303.444 134.099 303.474 134.721 303.501C134.962 303.511 136.863 303.392 136.988 303.683C137.152 304.066 135.108 304.703 134.963 304.749C133.659 305.165 132.32 305.412 130.963 305.574C130.366 305.645 131.896 305.534 131.957 305.525C133.325 305.336 134.688 305.089 136.054 304.883C136.505 304.815 136.044 304.94 135.939 304.974C135.286 305.184 134.646 305.422 134.006 305.671C132.256 306.35 130.475 306.982 128.769 307.768C128.397 307.939 128.157 308.192 128.551 307.756C129.14 307.103 129.82 306.536 130.418 305.889C131.24 304.999 129.734 306.457 129.569 306.604C128.958 307.153 127.575 307.987 127.327 308.822C127.285 308.961 127.621 308.789 127.751 308.725C128.332 308.44 128.91 308.149 129.484 307.853C131.602 306.76 133.701 305.492 136.078 305.065C136.169 305.048 138.082 304.665 137.63 305.174C136.837 306.066 135.747 306.791 134.721 307.38C134.645 307.423 132.563 308.365 132.612 308.119C132.728 307.536 133.717 307.127 134.175 306.931C135.082 306.544 136.102 306.427 137.072 306.301C137.472 306.249 138.301 306.066 137.436 306.386C136.72 306.65 135.904 306.762 135.23 307.125C134.734 307.392 134.919 307.512 135.048 307.125" stroke="#2E4154" stroke-width="3" stroke-linecap="round"/>
	</g>
	<defs>
		<linearGradient id="paint0_linear_747_352" x1="5.90942e-06" y1="7" x2="456" y2="449" gradientUnits="userSpaceOnUse">
			<stop stop-color="#21273B"/>
			<stop offset="0.875" stop-color="#385768"/>
		</linearGradient>
		<clipPath id="clip0_747_352">
			<rect width="456" height="456" fill="white"/>
		</clipPath>
	</defs>
</svg>
