<svg width="424" height="181" viewBox="0 0 424 181" fill="none" xmlns="http://www.w3.org/2000/svg">
	<path d="M237.499 16.0028C224.353 17.5224 216.888 31.9382 215.938 44.4596C214.386 55.5911 219.245 69.7952 230.933 72.3548C241.064 73.2585 249.123 63.7396 252.433 54.6593C256.343 43.2937 256.457 28.1161 246.97 19.6013C244.335 17.3172 240.952 15.9297 237.499 16.0028ZM183.875 16.5987C172.937 17.3902 167.331 30.1049 168.092 40.3111C168.185 53.9577 175.677 69.3061 189.34 72.5457C199.53 73.6478 206.324 62.8387 206.957 53.3873C208.257 38.9231 201.849 21.4013 187.34 17.0342C186.212 16.7228 185.042 16.5681 183.875 16.5987ZM271.768 60.4242C257.093 61.5001 247.813 77.1439 247.174 91.2801C246.402 100.486 252.348 112.064 262.36 111.429C277.334 109.842 286.362 93.1491 285.989 78.6458C285.894 70.2961 280.603 60.7722 271.768 60.4242ZM138.114 79.5072C136.756 95.1708 147.713 112.875 163.633 113.861C173.281 113.217 177.83 102.008 176.725 93.1404C175.843 80.0561 167.097 66.6572 155.733 64.9068C144.368 63.1564 137.933 71.1868 138.114 79.5072ZM213.677 92.8693C198.752 92.9041 185.108 102.665 177.812 115.871C171.701 125.74 166.705 136.912 165.754 148.703C165.962 157.796 174.636 165.364 183.333 163.553C195.74 161.942 206.826 153.324 219.727 154.939C230.448 155.795 239.29 164.112 250.115 163.991C260.625 164.384 266.688 152.337 262.681 142.901C258.367 129.391 250.004 117.64 241.029 107.057C233.87 99.2561 224.492 92.5239 213.677 92.8693Z" fill="white"/>
</svg>
